<?xml version="1.0" encoding="UTF-8" standalone="no" ?>
<!DOCTYPE svg PUBLIC "-//W3C//DTD SVG 1.1//EN" "http://www.w3.org/Graphics/SVG/1.1/DTD/svg11.dtd">
<svg xmlns="http://www.w3.org/2000/svg" xmlns:xlink="http://www.w3.org/1999/xlink" version="1.1" width="500" height="500" viewBox="0 0 500 500" xml:space="preserve">
<desc>Created with Fabric.js 3.6.3</desc>
<defs>
</defs>
<g transform="matrix(3.4111011438624206 0 0 3.4111011438624206 250 238.03103458535486)"  >
<linearGradient id="SVGID_31386" gradientUnits="userSpaceOnUse" gradientTransform="matrix(1 0 0 1 8.037999999999997 4.9997370197058615)"  x1="0" y1="0" x2="83.92736135478353" y2="90.00026298029414">
<stop offset="0%" style="stop-color:rgb(143,94,37);stop-opacity: 1"/>
<stop offset="50%" style="stop-color:rgb(251,244,161);stop-opacity: 1"/>
<stop offset="100%" style="stop-color:rgb(143,94,37);stop-opacity: 1"/>
</linearGradient>
<path style="stroke: none; stroke-width: 0; stroke-dasharray: none; stroke-linecap: butt; stroke-dashoffset: 0; stroke-linejoin: miter; stroke-miterlimit: 4; fill: url(#SVGID_31386); fill-rule: nonzero; opacity: 1;"  transform=" translate(-50.00168067739176, -49.99986850985293)" d="M 91.961 45.792 c -0.001 -0.01 -0.004 -0.018 -0.004 -0.026 c -0.003 -0.022 -0.012 -0.043 -0.017 -0.063 c -0.004 -0.012 0 -0.023 -0.004 -0.034 l -10.312 -31.21 c -0.002 -0.006 -0.009 -0.011 -0.011 -0.017 c -0.004 -0.009 -0.003 -0.019 -0.007 -0.027 c 0 -0.002 -0.003 -0.003 -0.005 -0.005 c -0.003 -0.006 -0.005 -0.011 -0.008 -0.016 c -0.003 -0.006 -0.006 -0.012 -0.009 -0.018 c -0.014 -0.024 -0.033 -0.042 -0.051 -0.063 c -0.001 -0.001 -0.003 -0.003 -0.004 -0.005 c -0.016 -0.021 -0.026 -0.045 -0.046 -0.063 c -0.001 -0.001 -0.002 -0.002 -0.004 -0.004 c -0.001 -0.001 -0.003 -0.003 -0.004 -0.004 s -0.004 -0.001 -0.005 -0.002 c -0.004 -0.005 -0.011 -0.009 -0.015 -0.012 c -0.021 -0.017 -0.047 -0.025 -0.07 -0.039 c -0.026 -0.015 -0.049 -0.034 -0.078 -0.045 c -0.006 -0.002 -0.011 -0.005 -0.017 -0.007 c -0.002 0 -0.004 -0.003 -0.007 -0.003 c -0.001 0 -0.004 0 -0.006 0 c -0.005 -0.001 -0.01 -0.001 -0.015 -0.003 c -0.002 0 -0.004 -0.003 -0.009 -0.004 L 45.661 5.015 c -0.026 -0.007 -0.053 -0.002 -0.078 -0.005 c -0.026 -0.002 -0.054 -0.012 -0.08 -0.01 c -0.004 0 -0.007 0.001 -0.011 0.001 c -0.005 0 -0.01 0 -0.015 0 c -0.002 0 -0.004 0 -0.006 0.001 c -0.001 0 -0.001 0 -0.003 0 c 0 0 -0.001 0.001 -0.003 0.001 c -0.023 0.003 -0.044 0.015 -0.067 0.021 c -0.005 0.001 -0.011 0.002 -0.015 0.004 c -0.025 0.008 -0.053 0.009 -0.075 0.021 C 45.305 5.05 45.303 5.052 45.3 5.054 c -0.007 0.003 -0.014 0.006 -0.018 0.009 c -0.001 0.001 -0.003 0 -0.004 0.001 c 0 0 0 0 -0.001 0 s -0.002 0 -0.003 0.001 l -0.002 0 c 0 0 -0.001 0 -0.001 0 L 16.202 21.449 h -0.001 l -0.004 0.003 l 0 0 l 0 0 l -0.004 0.001 l 0 0 l -0.002 0 c -0.032 0.019 -0.058 0.047 -0.086 0.073 c -0.018 0.016 -0.04 0.028 -0.056 0.045 c -0.001 0.001 -0.003 0.003 -0.004 0.004 c 0 0 -0.001 0 -0.001 0.001 v 0 c -0.002 0.001 -0.002 0.002 -0.003 0.004 c 0 0.001 -0.002 0.002 -0.003 0.002 c -0.014 0.017 -0.018 0.04 -0.029 0.057 c -0.021 0.035 -0.045 0.067 -0.059 0.106 l -0.001 0.002 l 0 0 l 0 0 v 0.001 l 0 0 L 8.064 46.105 c -0.012 0.038 -0.012 0.073 -0.016 0.11 c -0.002 0.017 -0.01 0.032 -0.01 0.048 c 0 0.001 0.001 0.003 0.001 0.004 S 8.039 46.27 8.039 46.27 l 0 0 c 0 0.003 0.001 0.005 0.001 0.008 c 0 0.004 0 0.007 0 0.01 c 0.001 0.016 0.007 0.028 0.009 0.042 c 0.006 0.044 0.01 0.086 0.026 0.128 l 13.351 34.247 c 0.003 0.005 0.009 0.008 0.011 0.014 c 0.003 0.009 0.005 0.016 0.009 0.022 c 0.001 0.002 0.001 0.005 0.001 0.007 c 0 0 0 0 0 0.001 c 0.002 0.001 0.003 0.003 0.003 0.006 c 0.004 0.006 0.01 0.011 0.014 0.017 c 0.022 0.038 0.046 0.074 0.076 0.105 c 0.004 0.004 0.01 0.007 0.015 0.012 c 0.004 0.004 0.007 0.011 0.012 0.015 l 0 0 c 0.001 0 0.002 0.001 0.004 0.002 c 0 0.001 0 0.001 0.001 0.002 c 0.009 0.007 0.02 0.012 0.029 0.02 c 0.03 0.021 0.062 0.041 0.095 0.057 c 0.009 0.004 0.015 0.012 0.022 0.015 l 0.005 0.002 C 21.722 81 21.724 81 21.724 81 l 34.375 13.96 l 0.002 0.001 l 0 0 c 0.001 0.001 0.004 0.001 0.005 0.001 c 0.007 0.002 0.013 0.004 0.019 0.007 C 56.181 94.987 56.238 95 56.296 95 h 0.002 l 0 0 l 0 0 l 0 0 l 0 0 c 0 0 0 0 0.001 0 c 0.02 0 0.04 -0.001 0.061 -0.004 c 0.021 -0.004 0.04 -0.016 0.06 -0.021 c 0.031 -0.007 0.061 -0.013 0.091 -0.025 c 0.005 -0.003 0.012 -0.001 0.017 -0.004 l 0.003 -0.001 c 0.001 0 0.001 -0.002 0.002 -0.002 l 30.281 -14.862 l 0 0 l 0.01 -0.005 c 0.002 -0.002 0.003 -0.003 0.005 -0.004 c 0.006 -0.003 0.01 -0.005 0.016 -0.008 c 0.001 0 0.003 0 0.004 -0.001 c 0.004 -0.002 0.006 -0.006 0.011 -0.009 c 0.05 -0.029 0.097 -0.064 0.135 -0.109 c 0 -0.001 0.001 -0.002 0.002 -0.003 c 0 -0.001 0 -0.001 0.001 -0.001 c 0 -0.001 0.001 -0.001 0.002 -0.002 c 0.001 -0.002 0.001 -0.004 0.002 -0.007 c 0.005 -0.004 0.008 -0.008 0.012 -0.014 c 0.007 -0.009 0.01 -0.02 0.015 -0.029 c 0.017 -0.024 0.036 -0.049 0.047 -0.078 c 0.004 -0.007 0.003 -0.015 0.006 -0.02 c 0.003 -0.011 0.01 -0.018 0.013 -0.028 c 0.001 -0.004 0.002 -0.007 0.004 -0.012 c 0.004 -0.014 0.001 -0.028 0.004 -0.042 c 0.003 -0.011 0.011 -0.019 0.012 -0.028 l 4.85 -33.775 c 0.002 -0.015 -0.005 -0.029 -0.004 -0.044 C 91.955 45.839 91.963 45.815 91.961 45.792 z M 74.231 68.762 l -7.653 -6.294 l 1.368 -4.335 l 4.816 -2.402 l 4.724 8.523 L 74.231 68.762 z M 78.048 65.262 l 6.763 12.204 l -9.773 -8.039 L 78.048 65.262 z M 27.465 64.617 l 2.695 -8.556 l 5.812 2.483 l 1.89 3.441 l -6.185 6.883 L 27.465 64.617 z M 30.977 69.646 l -7.846 8.729 l 3.98 -12.633 L 30.977 69.646 z M 83.189 45.35 L 71.961 45.41 l 1.504 -4.768 l 9.587 3.059 L 83.189 45.35 z M 84.126 44.044 l 4.012 1.279 l -3.901 0.021 L 84.126 44.044 z M 70.867 45.415 l -2.62 0.015 l -4.343 -7.837 l 8.568 2.734 L 70.867 45.415 z M 33.121 46.658 l 12.516 -0.066 l 3.483 2.866 l -8.812 9.807 l -3.597 -1.537 l -4.498 -8.189 L 33.121 46.658 z M 31.52 48.271 l -0.879 -1.601 l 1.386 -0.008 L 31.52 48.271 z M 36.967 34.448 l 7.217 -3.146 l 4.102 1.308 l 1.562 12.916 l -3.84 0.021 l -9.957 -8.189 L 36.967 34.448 z M 35.182 36.643 l -1.124 -0.925 l 1.643 -0.716 L 35.182 36.643 z M 45.632 30.67 l 2.298 -1.002 l 0.219 1.806 L 45.632 30.67 z M 62.456 37.131 l 4.602 8.305 l -12.982 0.068 l 7.717 -8.584 L 62.456 37.131 z M 52.668 45.511 l -1.771 0.01 l -1.521 -12.562 l 11.326 3.614 L 52.668 45.511 z M 49.818 48.682 l -2.553 -2.099 l 2.708 -0.016 l 0.207 1.712 L 49.818 48.682 z M 51.022 46.563 l 0.704 -0.004 l -0.62 0.69 L 51.022 46.563 z M 44.377 45.556 L 33.45 45.613 l 2.264 -7.185 L 44.377 45.556 z M 49.927 50.121 l 0.529 0.435 l 1.664 13.755 l -10.799 -4.614 L 49.927 50.121 z M 51.622 51.515 l 10.29 8.464 l -8.738 4.359 L 51.622 51.515 z M 51.44 50.016 l -0.168 -1.393 l 1.862 -2.072 l 14.499 -0.077 l 1.848 3.334 l -2.395 7.59 l -4.154 2.071 L 51.44 50.016 z M 68.822 46.468 l 1.716 -0.009 l -0.625 1.979 L 68.822 46.468 z M 63.167 36.265 l -0.3 -0.544 l 7.178 -7.984 l 5.011 4.4 l -2.27 7.195 L 63.167 36.265 z M 70.741 26.961 l 9.168 -10.202 l -4.51 14.292 L 70.741 26.961 z M 69.958 26.273 l -4.727 -4.15 l 13.906 -6.064 L 69.958 26.273 z M 69.262 27.048 l -6.929 7.709 l -5.075 -9.157 l 6.92 -3.016 L 69.262 27.048 z M 61.595 35.578 l -0.129 0.143 l -12.228 -3.899 l -0.312 -2.587 l 7.372 -3.215 L 61.595 35.578 z M 48.795 28.152 l -1.118 -9.238 l 4.406 -0.497 l 3.706 6.686 L 48.795 28.152 z M 47.553 17.879 l -1.184 -9.771 l 5.168 9.323 L 47.553 17.879 z M 46.517 17.996 l -4.527 0.51 l 3.315 -10.529 L 46.517 17.996 z M 46.642 19.031 l 1.156 9.557 l -3.673 1.602 l -5.285 -1.687 l 2.807 -8.91 L 46.642 19.031 z M 42.677 30.822 l -5.294 2.308 l 1.144 -3.633 L 42.677 30.822 z M 36.114 33.683 l -2.96 1.29 l -7.812 -6.424 l 2.292 -2.526 l 9.899 3.158 L 36.114 33.683 z M 24.536 27.885 l -5.66 -4.657 l 7.666 2.446 L 24.536 27.885 z M 23.834 28.657 l -1.922 2.119 l -3.704 -6.747 L 23.834 28.657 z M 24.64 29.32 l 7.441 6.121 l -6.136 2.677 l -3.502 -6.375 L 24.64 29.32 z M 32.985 36.185 l 1.86 1.53 l -2.49 7.905 l -2.285 0.012 l -3.624 -6.596 L 32.985 36.185 z M 28.885 45.638 l -9.695 0.052 l -0.312 -3.354 l 6.612 -2.883 L 28.885 45.638 z M 18.143 45.694 l -7.052 0.038 l 6.78 -2.957 L 18.143 45.694 z M 18.239 46.737 l 0.301 3.227 l -7.465 -3.189 L 18.239 46.737 z M 19.286 46.731 l 10.169 -0.054 l 1.631 2.971 L 29.51 54.65 l -9.879 -4.22 L 19.286 46.731 z M 31.781 50.914 l 3.377 6.151 l -4.685 -2.002 L 31.781 50.914 z M 37.525 59.21 l 2.047 0.874 L 38.6 61.166 L 37.525 59.21 z M 40.584 60.517 l 10.907 4.659 L 43.1 69.362 l -3.969 -7.229 L 40.584 60.517 z M 52.316 65.93 l 3.138 25.933 L 43.602 70.276 L 52.316 65.93 z M 53.372 65.979 l 9.698 4.145 l -6.647 21.068 L 53.372 65.979 z M 53.974 65.104 l 8.819 -4.399 l 2.58 2.123 l -1.986 6.298 L 53.974 65.104 z M 63.813 60.194 l 2.836 -1.415 l -0.938 2.976 L 63.813 60.194 z M 68.383 56.75 l 1.795 -5.687 l 2.079 3.755 L 68.383 56.75 z M 70.61 49.692 l 1.021 -3.239 l 11.647 -0.062 l 0.235 2.812 l -10.322 5.149 L 70.61 49.692 z M 84.323 46.387 l 4.891 -0.026 l -4.694 2.342 L 84.323 46.387 z M 84.032 42.921 l -0.264 -3.134 l 5.454 4.789 L 84.032 42.921 z M 82.957 42.577 l -9.177 -2.928 l 2.132 -6.76 l 6.728 5.906 L 82.957 42.577 z M 76.255 31.803 l 4.576 -14.505 l 1.683 20 L 76.255 31.803 z M 64.366 21.364 l -4.37 -3.836 l 17.754 -2 L 64.366 21.364 z M 63.31 21.824 l -6.561 2.861 l -3.543 -6.393 l 5.391 -0.606 L 63.31 21.824 z M 52.66 17.305 l -5.218 -9.414 l 10.095 8.864 L 52.66 17.305 z M 40.854 18.634 l -7.261 0.817 l 10.726 -11.82 L 40.854 18.634 z M 40.513 19.721 l -2.665 8.465 l -9.444 -3.013 l 4.131 -4.554 L 40.513 19.721 z M 27.312 24.826 l -8.382 -2.673 l 12.037 -1.357 L 27.312 24.826 z M 21.172 31.592 l -2.989 3.295 L 17.201 24.36 L 21.172 31.592 z M 21.702 32.559 l 3.283 5.978 l -6.211 2.708 l -0.461 -4.949 L 21.702 32.559 z M 17.769 41.684 l -7.189 3.134 l 6.785 -7.478 L 17.769 41.684 z M 18.65 51.145 l 0.471 5.046 l -8.316 -8.397 L 18.65 51.145 z M 19.743 51.61 l 9.453 4.04 l -2.561 8.13 l -6.36 -6.42 L 19.743 51.61 z M 26.281 64.904 L 22.19 77.892 L 20.43 58.995 L 26.281 64.904 z M 31.711 70.389 l 3.085 3.115 l -10.665 5.32 L 31.711 70.389 z M 32.41 69.613 l 5.983 -6.657 l 3.773 6.872 l -6.389 3.187 L 32.41 69.613 z M 42.67 70.741 l 11.378 20.724 L 36.551 73.794 L 42.67 70.741 z M 64.033 70.535 l 6.813 2.91 l -13.727 19 L 64.033 70.535 z M 64.35 69.535 l 1.892 -5.995 l 7.378 6.069 l -2.146 2.97 L 64.35 69.535 z M 74.427 70.273 l 9.026 7.425 L 72.456 73 L 74.427 70.273 z M 78.722 64.328 l 5.432 -7.519 l 1.717 20.417 L 78.722 64.328 z M 78.163 63.321 l -4.465 -8.057 l 9.911 -4.944 l 0.411 4.894 L 78.163 63.321 z M 84.611 49.821 l 5.166 -2.577 l -4.82 6.674 L 84.611 49.821 z M 83.643 38.29 l -1.625 -19.319 l 8.328 25.203 L 83.643 38.29 z M 58.938 16.598 L 47.511 6.564 l 30.734 7.858 L 58.938 16.598 z M 32.027 19.629 l -13.089 1.473 L 42.98 7.555 L 32.027 19.629 z M 16.164 24.477 l 1.069 11.458 l -7.431 8.187 L 16.164 24.477 z M 19.274 57.828 l 1.774 19.034 L 9.961 48.422 L 19.274 57.828 z M 35.568 74.284 l 18.568 18.753 L 23.178 80.465 L 35.568 74.284 z M 71.83 73.865 l 13.513 5.774 l -27.4 13.448 L 71.83 73.865 z M 86.729 74.995 l -1.638 -19.482 l 5.534 -7.66 L 86.729 74.995 z" stroke-linecap="round" />
</g>
<g transform="matrix(-0.47341178427007213 0.16087660648530194 -0.16087660648530194 -0.47341178427007213 136.50963642936634 142.34321102414424)" clip-path="url(#CLIPPATH_31404)"  >
<linearGradient id="SVGID_31387" gradientUnits="userSpaceOnUse" gradientTransform="matrix(1 0 0 1 -15.686422048288478 -15.686422048288478)"  x1="0" y1="0" x2="42.399993896484375" y2="42.399993896484375">
<stop offset="0%" style="stop-color:rgb(143,94,37);stop-opacity: 1"/>
<stop offset="50%" style="stop-color:rgb(251,244,161);stop-opacity: 1"/>
<stop offset="100%" style="stop-color:rgb(143,94,37);stop-opacity: 1"/>
</linearGradient>
<linearGradient id="SVGID_31388" gradientUnits="userSpaceOnUse" gradientTransform="matrix(1 0 0 1 -15.686422048288478 -15.686422048288478)"  x1="0" y1="0" x2="42.399993896484375" y2="42.399993896484375">
<stop offset="0%" style="stop-color:rgb(143,94,37);stop-opacity: 1"/>
<stop offset="50%" style="stop-color:rgb(251,244,161);stop-opacity: 1"/>
<stop offset="100%" style="stop-color:rgb(143,94,37);stop-opacity: 1"/>
</linearGradient>
<clipPath id="CLIPPATH_31404" >
	<ellipse transform="matrix(1 0 0 1 0 0)" cx="0" cy="0" rx="15.686422048288478" ry="15.686422048288478" />
</clipPath>
<ellipse style="stroke: url(#SVGID_31388); stroke-width: 5; stroke-dasharray: none; stroke-linecap: butt; stroke-dashoffset: 0; stroke-linejoin: miter; stroke-miterlimit: 4; fill: url(#SVGID_31387); fill-rule: nonzero; opacity: 1;"  cx="0" cy="0" rx="15.686422048288478" ry="15.686422048288478" />
</g>
<g transform="matrix(0.04771908366241191 -0.4977176800701576 0.4977176800701576 0.04771908366241191 390.5096364293663 222.34321102414424)" clip-path="url(#CLIPPATH_31405)"  >
<linearGradient id="SVGID_31389" gradientUnits="userSpaceOnUse" gradientTransform="matrix(1 0 0 1 -15.686422048288478 -15.686422048288478)"  x1="0" y1="0" x2="42.399993896484375" y2="42.399993896484375">
<stop offset="0%" style="stop-color:rgb(143,94,37);stop-opacity: 1"/>
<stop offset="50%" style="stop-color:rgb(251,244,161);stop-opacity: 1"/>
<stop offset="100%" style="stop-color:rgb(143,94,37);stop-opacity: 1"/>
</linearGradient>
<linearGradient id="SVGID_31390" gradientUnits="userSpaceOnUse" gradientTransform="matrix(1 0 0 1 -15.686422048288478 -15.686422048288478)"  x1="0" y1="0" x2="42.399993896484375" y2="42.399993896484375">
<stop offset="0%" style="stop-color:rgb(143,94,37);stop-opacity: 1"/>
<stop offset="50%" style="stop-color:rgb(251,244,161);stop-opacity: 1"/>
<stop offset="100%" style="stop-color:rgb(143,94,37);stop-opacity: 1"/>
</linearGradient>
<clipPath id="CLIPPATH_31405" >
	<ellipse transform="matrix(1 0 0 1 0 0)" cx="0" cy="0" rx="15.686422048288478" ry="15.686422048288478" />
</clipPath>
<ellipse style="stroke: url(#SVGID_31390); stroke-width: 5; stroke-dasharray: none; stroke-linecap: butt; stroke-dashoffset: 0; stroke-linejoin: miter; stroke-miterlimit: 4; fill: url(#SVGID_31389); fill-rule: nonzero; opacity: 1;"  cx="0" cy="0" rx="15.686422048288478" ry="15.686422048288478" />
</g>
<g transform="matrix(0 -0.5 0.5 0 154.5096364293663 339.9887792212917)" clip-path="url(#CLIPPATH_31406)"  >
<linearGradient id="SVGID_31391" gradientUnits="userSpaceOnUse" gradientTransform="matrix(1 0 0 1 -15.686422048288478 -15.686422048288478)"  x1="0" y1="0" x2="42.399993896484375" y2="42.399993896484375">
<stop offset="0%" style="stop-color:rgb(143,94,37);stop-opacity: 1"/>
<stop offset="50%" style="stop-color:rgb(251,244,161);stop-opacity: 1"/>
<stop offset="100%" style="stop-color:rgb(143,94,37);stop-opacity: 1"/>
</linearGradient>
<linearGradient id="SVGID_31392" gradientUnits="userSpaceOnUse" gradientTransform="matrix(1 0 0 1 -15.686422048288478 -15.686422048288478)"  x1="0" y1="0" x2="42.399993896484375" y2="42.399993896484375">
<stop offset="0%" style="stop-color:rgb(143,94,37);stop-opacity: 1"/>
<stop offset="50%" style="stop-color:rgb(251,244,161);stop-opacity: 1"/>
<stop offset="100%" style="stop-color:rgb(143,94,37);stop-opacity: 1"/>
</linearGradient>
<clipPath id="CLIPPATH_31406" >
	<ellipse transform="matrix(1 0 0 1 0 0)" cx="0" cy="0" rx="15.686422048288478" ry="15.686422048288478" />
</clipPath>
<ellipse style="stroke: url(#SVGID_31392); stroke-width: 5; stroke-dasharray: none; stroke-linecap: butt; stroke-dashoffset: 0; stroke-linejoin: miter; stroke-miterlimit: 4; fill: url(#SVGID_31391); fill-rule: nonzero; opacity: 1;"  cx="0" cy="0" rx="15.686422048288478" ry="15.686422048288478" />
</g>
<g transform="matrix(-0.10420274951513525 0.4890212541326665 -0.4890212541326665 -0.10420274951513525 355.50963642936637 117.34321102414424)" clip-path="url(#CLIPPATH_31407)"  >
<linearGradient id="SVGID_31393" gradientUnits="userSpaceOnUse" gradientTransform="matrix(1 0 0 1 -15.686422048288478 -15.686422048288478)"  x1="0" y1="0" x2="42.399993896484375" y2="42.399993896484375">
<stop offset="0%" style="stop-color:rgb(143,94,37);stop-opacity: 1"/>
<stop offset="50%" style="stop-color:rgb(251,244,161);stop-opacity: 1"/>
<stop offset="100%" style="stop-color:rgb(143,94,37);stop-opacity: 1"/>
</linearGradient>
<linearGradient id="SVGID_31394" gradientUnits="userSpaceOnUse" gradientTransform="matrix(1 0 0 1 -15.686422048288478 -15.686422048288478)"  x1="0" y1="0" x2="42.399993896484375" y2="42.399993896484375">
<stop offset="0%" style="stop-color:rgb(143,94,37);stop-opacity: 1"/>
<stop offset="50%" style="stop-color:rgb(251,244,161);stop-opacity: 1"/>
<stop offset="100%" style="stop-color:rgb(143,94,37);stop-opacity: 1"/>
</linearGradient>
<clipPath id="CLIPPATH_31407" >
	<ellipse transform="matrix(1 0 0 1 0 0)" cx="0" cy="0" rx="15.686422048288478" ry="15.686422048288478" />
</clipPath>
<ellipse style="stroke: url(#SVGID_31394); stroke-width: 5; stroke-dasharray: none; stroke-linecap: butt; stroke-dashoffset: 0; stroke-linejoin: miter; stroke-miterlimit: 4; fill: url(#SVGID_31393); fill-rule: nonzero; opacity: 1;"  cx="0" cy="0" rx="15.686422048288478" ry="15.686422048288478" />
</g>
<g transform="matrix(-0.23301179682385675 0.4423861464161346 -0.4423861464161346 -0.23301179682385675 109.50963642936634 225.34321102414424)" clip-path="url(#CLIPPATH_31408)"  >
<linearGradient id="SVGID_31395" gradientUnits="userSpaceOnUse" gradientTransform="matrix(1 0 0 1 -15.686422048288478 -15.686422048288478)"  x1="0" y1="0" x2="42.399993896484375" y2="42.399993896484375">
<stop offset="0%" style="stop-color:rgb(143,94,37);stop-opacity: 1"/>
<stop offset="50%" style="stop-color:rgb(251,244,161);stop-opacity: 1"/>
<stop offset="100%" style="stop-color:rgb(143,94,37);stop-opacity: 1"/>
</linearGradient>
<linearGradient id="SVGID_31396" gradientUnits="userSpaceOnUse" gradientTransform="matrix(1 0 0 1 -15.686422048288478 -15.686422048288478)"  x1="0" y1="0" x2="42.399993896484375" y2="42.399993896484375">
<stop offset="0%" style="stop-color:rgb(143,94,37);stop-opacity: 1"/>
<stop offset="50%" style="stop-color:rgb(251,244,161);stop-opacity: 1"/>
<stop offset="100%" style="stop-color:rgb(143,94,37);stop-opacity: 1"/>
</linearGradient>
<clipPath id="CLIPPATH_31408" >
	<ellipse transform="matrix(1 0 0 1 0 0)" cx="0" cy="0" rx="15.686422048288478" ry="15.686422048288478" />
</clipPath>
<ellipse style="stroke: url(#SVGID_31396); stroke-width: 5; stroke-dasharray: none; stroke-linecap: butt; stroke-dashoffset: 0; stroke-linejoin: miter; stroke-miterlimit: 4; fill: url(#SVGID_31395); fill-rule: nonzero; opacity: 1;"  cx="0" cy="0" rx="15.686422048288478" ry="15.686422048288478" />
</g>
<g transform="matrix(0.034726179097079125 0.4987926347544815 -0.4987926347544815 0.034726179097079125 270.5096364293663 387.3432110241443)" clip-path="url(#CLIPPATH_31409)"  >
<linearGradient id="SVGID_31397" gradientUnits="userSpaceOnUse" gradientTransform="matrix(1 0 0 1 -15.686422048288478 -15.686422048288478)"  x1="0" y1="0" x2="42.399993896484375" y2="42.399993896484375">
<stop offset="0%" style="stop-color:rgb(143,94,37);stop-opacity: 1"/>
<stop offset="50%" style="stop-color:rgb(251,244,161);stop-opacity: 1"/>
<stop offset="100%" style="stop-color:rgb(143,94,37);stop-opacity: 1"/>
</linearGradient>
<linearGradient id="SVGID_31398" gradientUnits="userSpaceOnUse" gradientTransform="matrix(1 0 0 1 -15.686422048288478 -15.686422048288478)"  x1="0" y1="0" x2="42.399993896484375" y2="42.399993896484375">
<stop offset="0%" style="stop-color:rgb(143,94,37);stop-opacity: 1"/>
<stop offset="50%" style="stop-color:rgb(251,244,161);stop-opacity: 1"/>
<stop offset="100%" style="stop-color:rgb(143,94,37);stop-opacity: 1"/>
</linearGradient>
<clipPath id="CLIPPATH_31409" >
	<ellipse transform="matrix(1 0 0 1 0 0)" cx="0" cy="0" rx="15.686422048288478" ry="15.686422048288478" />
</clipPath>
<ellipse style="stroke: url(#SVGID_31398); stroke-width: 5; stroke-dasharray: none; stroke-linecap: butt; stroke-dashoffset: 0; stroke-linejoin: miter; stroke-miterlimit: 4; fill: url(#SVGID_31397); fill-rule: nonzero; opacity: 1;"  cx="0" cy="0" rx="15.686422048288478" ry="15.686422048288478" />
</g>
<g transform="matrix(0.4493295724642358 0.2193238138212698 -0.2193238138212698 0.4493295724642358 373.5096364293663 337.34321102414424)" clip-path="url(#CLIPPATH_31410)"  >
<linearGradient id="SVGID_31399" gradientUnits="userSpaceOnUse" gradientTransform="matrix(1 0 0 1 -15.686422048288478 -15.686422048288478)"  x1="0" y1="0" x2="42.399993896484375" y2="42.399993896484375">
<stop offset="0%" style="stop-color:rgb(143,94,37);stop-opacity: 1"/>
<stop offset="50%" style="stop-color:rgb(251,244,161);stop-opacity: 1"/>
<stop offset="100%" style="stop-color:rgb(143,94,37);stop-opacity: 1"/>
</linearGradient>
<linearGradient id="SVGID_31400" gradientUnits="userSpaceOnUse" gradientTransform="matrix(1 0 0 1 -15.686422048288478 -15.686422048288478)"  x1="0" y1="0" x2="42.399993896484375" y2="42.399993896484375">
<stop offset="0%" style="stop-color:rgb(143,94,37);stop-opacity: 1"/>
<stop offset="50%" style="stop-color:rgb(251,244,161);stop-opacity: 1"/>
<stop offset="100%" style="stop-color:rgb(143,94,37);stop-opacity: 1"/>
</linearGradient>
<clipPath id="CLIPPATH_31410" >
	<ellipse transform="matrix(1 0 0 1 0 0)" cx="0" cy="0" rx="15.686422048288478" ry="15.686422048288478" />
</clipPath>
<ellipse style="stroke: url(#SVGID_31400); stroke-width: 5; stroke-dasharray: none; stroke-linecap: butt; stroke-dashoffset: 0; stroke-linejoin: miter; stroke-miterlimit: 4; fill: url(#SVGID_31399); fill-rule: nonzero; opacity: 1;"  cx="0" cy="0" rx="15.686422048288478" ry="15.686422048288478" />
</g>
<g transform="matrix(0.5 0 0 0.5 252 277.77272605895996)" clip-path="url(#CLIPPATH_31411)"  >
<linearGradient id="SVGID_31401" gradientUnits="userSpaceOnUse" gradientTransform="matrix(1 0 0 1 -150.00000000000003 -75.90909194946288)"  x1="0" y1="0" x2="300.00000000000006" y2="151.81818389892575">
<stop offset="0%" style="stop-color:rgb(255,218,78);stop-opacity: 1"/>
<stop offset="32%" style="stop-color:rgb(251,222,138);stop-opacity: 1"/>
<stop offset="68%" style="stop-color:rgb(216,165,23);stop-opacity: 1"/>
<stop offset="100%" style="stop-color:rgb(246,190,33);stop-opacity: 1"/>
</linearGradient>
<clipPath id="CLIPPATH_31411" >
	<rect transform="matrix(1 0 0 1 0 0)" x="-150.00000000000003" y="-75.90909194946288" rx="0" ry="0" width="300.00000000000006" height="151.81818389892575" />
</clipPath>
<rect style="stroke: url(#SVGID_31401); stroke-width: 12; stroke-dasharray: ; stroke-linecap: butt; stroke-dashoffset: 0; stroke-linejoin: miter; stroke-miterlimit: 4; fill: rgb(7,129,193); fill-rule: nonzero; opacity: 1;"  x="-150.00000000000003" y="-75.90909194946288" rx="0" ry="0" width="300.00000000000006" height="151.81818389892575" />
</g>
<g transform="matrix(1 0 0 1 252.25 265.7316800842285)" style=""  ><path fill="#ffffff" opacity="1" d="M-39.34-13.41L-44.08-13.41L-49.95 2.47L-50.75 5.46L-51.32 2.47L-56.85-13.41L-62.91-13.41L-60.45-8.71L-52.91 11.64L-49.46 12.40Z"/><path fill="#ffffff" opacity="1" d="M-35.66 11.91L-22.13 11.91L-21.19 8.15L-30.74 8.15L-30.74 0.80L-23.69 0.80L-22.74-2.95L-30.74-2.95L-30.74-9.66L-21.68-9.66L-21.68-13.41L-36.19-13.41L-35.66-9.51Z"/><path fill="#ffffff" opacity="1" d="M2.99 11.91L-4.85 1.86C-2.01 0.42-0.08-2.72-0.08-5.53C-0.08-10.91-4.47-13.41-9.02-13.41L-16.87-13.41L-16.33-9.51L-16.33 11.91L-10.99 11.91L-11.41 8.65L-11.41 2.96L-9.48 2.96L-3.18 11.91ZM-11.41-0.64L-11.41-9.92L-9.70-9.92C-7.31-9.92-5.19-8.41-5.19-5.53C-5.19-2.84-7.31-0.64-9.70-0.64Z"/><path fill="#ffffff" opacity="1" d="M2.20-9.58L10.16-9.58L10.16 11.91L15.50 11.91L15.08 8.65L15.08-9.58L23.27-9.58L23.27-13.41L2.20-13.41Z"/><path fill="#ffffff" opacity="1" d="M26.95 11.91L40.48 11.91L41.42 8.15L31.87 8.15L31.87 0.80L38.92 0.80L39.87-2.95L31.87-2.95L31.87-9.66L40.93-9.66L40.93-13.41L26.42-13.41L26.95-9.51Z"/><path fill="#ffffff" opacity="1" d="M42.60 11.91L47.83 11.91L52.11 4.21L52.64 2.89L53.25 4.21L57.38 11.91L62.91 11.91L55.41-1.36L62.76-13.41L57.76-13.41L53.67-6.29L53.17-4.96L52.61-6.29L48.74-13.41L42.71-13.41L45.14-10.11L50.33-0.75Z"/></g><g transform="matrix(-0.4454768364355952 -0.22704710568367514 0.22704710568367514 -0.4454768364355952 234.5096364293663 87.34321102414424)" clip-path="url(#CLIPPATH_31412)"  >
<linearGradient id="SVGID_31402" gradientUnits="userSpaceOnUse" gradientTransform="matrix(1 0 0 1 -15.686422048288478 -15.686422048288478)"  x1="0" y1="0" x2="42.399993896484375" y2="42.399993896484375">
<stop offset="0%" style="stop-color:rgb(143,94,37);stop-opacity: 1"/>
<stop offset="50%" style="stop-color:rgb(251,244,161);stop-opacity: 1"/>
<stop offset="100%" style="stop-color:rgb(143,94,37);stop-opacity: 1"/>
</linearGradient>
<linearGradient id="SVGID_31403" gradientUnits="userSpaceOnUse" gradientTransform="matrix(1 0 0 1 -15.686422048288478 -15.686422048288478)"  x1="0" y1="0" x2="42.399993896484375" y2="42.399993896484375">
<stop offset="0%" style="stop-color:rgb(143,94,37);stop-opacity: 1"/>
<stop offset="50%" style="stop-color:rgb(251,244,161);stop-opacity: 1"/>
<stop offset="100%" style="stop-color:rgb(143,94,37);stop-opacity: 1"/>
</linearGradient>
<clipPath id="CLIPPATH_31412" >
	<ellipse transform="matrix(1 0 0 1 0 0)" cx="0" cy="0" rx="15.686422048288478" ry="15.686422048288478" />
</clipPath>
<ellipse style="stroke: url(#SVGID_31403); stroke-width: 5; stroke-dasharray: none; stroke-linecap: butt; stroke-dashoffset: 0; stroke-linejoin: miter; stroke-miterlimit: 4; fill: url(#SVGID_31402); fill-rule: nonzero; opacity: 1;"  cx="0" cy="0" rx="15.686422048288478" ry="15.686422048288478" />
</g>
<g transform="matrix(1 0 0 1 250.25 299.4244597393664)" style=""  ><path fill="#ffffff" opacity="1" d="M-44.43 5.62L-38.04 5.62L-37.59 3.85L-42.10 3.85L-42.10 0.38L-38.77 0.38L-38.32-1.39L-42.10-1.39L-42.10-4.56L-37.82-4.56L-37.82-6.33L-44.68-6.33L-44.43-4.49Z"/><path fill="#ffffff" opacity="1" d="M-35.55-6.33L-35.30-4.49L-35.30 5.62L-32.77 5.62L-32.97 4.08L-32.97 1.40L-32.45 1.40C-29.66 1.40-27.62-0.48-27.62-2.61C-27.62-5.15-29.70-6.33-31.84-6.33ZM-32.97-0.39L-32.97-4.60L-32.17-4.60C-31.04-4.60-30.04-3.97-30.04-2.61C-30.04-1.34-31.04-0.39-32.17-0.39Z"/><path fill="#ffffff" opacity="1" d="M-16.43-5.06C-17.58-6.08-18.92-6.55-20.53-6.55C-23.88-6.55-26.47-3.88-26.47-0.10C-26.47 3.85-23.63 5.86-20.67 5.86C-19.15 5.86-17.42 5.23-16.29 4.19L-16.72 2.35C-17.76 3.46-19.12 4.03-20.33 4.03C-22.27 4.03-24.06 2.51-24.06-0.28C-24.06-2.68-22.54-4.78-20.51-4.78C-19.46-4.78-18.38-4.37-17.38-3.34Z"/><path fill="#ffffff" opacity="1" d=""/><path fill="#ffffff" opacity="1" d="M-0.88-5.06C-2.02-6.08-3.37-6.55-4.98-6.55C-8.32-6.55-10.92-3.88-10.92-0.10C-10.92 3.85-8.07 5.86-5.12 5.86C-2.77 5.86-0.68 5.07-0.68 5.07L-0.70-0.19L-3.28-0.19L-2.95 1.35L-2.95 3.87C-2.95 3.87-3.85 4.10-4.80 4.10C-6.66 4.10-8.50 2.51-8.50-0.28C-8.50-2.68-6.98-4.78-4.96-4.78C-3.90-4.78-2.83-4.37-1.83-3.34Z"/><path fill="#ffffff" opacity="1" d="M11.08 5.62L7.37 0.88C8.72 0.20 9.63-1.29 9.63-2.61C9.63-5.15 7.55-6.33 5.41-6.33L1.70-6.33L1.95-4.49L1.95 5.62L4.47 5.62L4.28 4.08L4.28 1.40L5.19 1.40L8.16 5.62ZM4.28-0.30L4.28-4.69L5.08-4.69C6.21-4.69 7.21-3.97 7.21-2.61C7.21-1.34 6.21-0.30 5.08-0.30Z"/><path fill="#ffffff" opacity="1" d="M17.33-6.51C14.07-6.51 11.60-3.79 11.60-0.23C11.60 3.19 13.59 5.86 17.09 5.86C20.35 5.86 22.86 3.14 22.86-0.44C22.86-3.99 21.01-6.51 17.33-6.51ZM14.07-0.34C14.07-2.90 15.34-4.79 17.24-4.79C19.14-4.79 20.39-2.90 20.39-0.34C20.39 2.22 19.14 4.12 17.24 4.12C15.34 4.12 14.07 2.22 14.07-0.34Z"/><path fill="#ffffff" opacity="1" d="M32.86 1.02C32.86 2.81 31.65 4.10 30.09 4.10C28.55 4.10 27.40 2.94 27.40 1.15L27.40-6.33L24.83-6.33L25.08-4.49L25.08 1.29C25.08 1.60 25.19 5.86 29.77 5.86C32.92 5.86 34.92 3.83 34.92 0.83L34.92-6.33L32.61-6.33L32.86-4.49Z"/><path fill="#ffffff" opacity="1" d="M37.70-6.33L37.95-4.49L37.95 5.62L40.47 5.62L40.28 4.08L40.28 1.40L40.79 1.40C43.59 1.40 45.63-0.48 45.63-2.61C45.63-5.15 43.55-6.33 41.40-6.33ZM40.28-0.39L40.28-4.60L41.08-4.60C42.21-4.60 43.21-3.97 43.21-2.61C43.21-1.34 42.21-0.39 41.08-0.39Z"/></g></svg>