<svg width="76" height="70" viewBox="0 0 76 70" fill="none" xmlns="http://www.w3.org/2000/svg">
<g clip-path="url(#clip0_338_70)">
<path d="M68.963 32.6703C68.9623 32.6629 68.9601 32.657 68.9601 32.651C68.9578 32.6348 68.9512 32.6192 68.9475 32.6044C68.9445 32.5955 68.9475 32.5874 68.9445 32.5793L61.3213 9.48264C61.3198 9.4782 61.3146 9.4745 61.3131 9.47006C61.3102 9.4634 61.3109 9.456 61.308 9.45008C61.308 9.4486 61.3057 9.44786 61.3043 9.44638C61.302 9.44194 61.3006 9.43824 61.2983 9.43454C61.2961 9.4301 61.2939 9.42566 61.2917 9.42122C61.2813 9.40346 61.2673 9.39014 61.254 9.3746C61.2532 9.37386 61.2518 9.37238 61.251 9.3709C61.2392 9.35536 61.2318 9.3376 61.217 9.32428C61.2163 9.32354 61.2155 9.3228 61.2141 9.32132C61.2133 9.32058 61.2118 9.3191 61.2111 9.31836C61.2104 9.31762 61.2082 9.31762 61.2074 9.31688C61.2045 9.31318 61.1993 9.31022 61.1963 9.308C61.1808 9.29541 61.1616 9.28949 61.1446 9.27913C61.1254 9.26803 61.1084 9.25397 61.0869 9.24583C61.0825 9.24435 61.0788 9.24213 61.0743 9.24065C61.0729 9.24065 61.0714 9.23843 61.0692 9.23843C61.0684 9.23843 61.0662 9.23843 61.0647 9.23843C61.061 9.23769 61.0573 9.23769 61.0536 9.23621C61.0522 9.23621 61.0507 9.23399 61.047 9.23325L34.7352 2.49372C34.7159 2.48854 34.696 2.49224 34.6775 2.49002C34.6583 2.48854 34.6376 2.48114 34.6184 2.48262C34.6154 2.48262 34.6132 2.48336 34.6102 2.48336C34.6065 2.48336 34.6028 2.48336 34.5991 2.48336C34.5977 2.48336 34.5962 2.48336 34.5947 2.4841C34.594 2.4841 34.594 2.4841 34.5925 2.4841C34.5925 2.4841 34.5917 2.48484 34.5903 2.48484C34.5733 2.48706 34.5577 2.49594 34.5407 2.50038C34.537 2.50112 34.5326 2.50186 34.5296 2.50334C34.5112 2.50926 34.4905 2.51 34.4742 2.51888C34.472 2.51962 34.4705 2.5211 34.4683 2.52258C34.4631 2.5248 34.4579 2.52702 34.455 2.52924C34.4542 2.52998 34.4528 2.52924 34.452 2.52998C34.4513 2.52998 34.4498 2.52998 34.4491 2.53072H34.4476L12.9572 14.6555L12.9535 14.6577L12.9506 14.6585H12.9491C12.9254 14.6725 12.9062 14.6933 12.8855 14.7125C12.8722 14.7243 12.8559 14.7332 12.8441 14.7458C12.8434 14.7465 12.8419 14.748 12.8412 14.7488C12.8412 14.7488 12.8404 14.7488 12.8404 14.7495C12.8389 14.7502 12.8389 14.751 12.8382 14.7525C12.8382 14.7532 12.8367 14.7539 12.836 14.7539C12.8256 14.7665 12.8227 14.7835 12.8145 14.7961C12.799 14.822 12.7813 14.8457 12.7709 14.8746L12.7702 14.876L6.9411 32.9019C6.93222 32.93 6.93222 32.9559 6.92927 32.9833C6.92779 32.9959 6.92188 33.007 6.92188 33.0188C6.92188 33.0196 6.92261 33.0211 6.92261 33.0218C6.92261 33.0225 6.92261 33.024 6.92261 33.024C6.92261 33.0262 6.92335 33.0277 6.92335 33.0299C6.92335 33.0329 6.92335 33.0351 6.92335 33.0373C6.92409 33.0492 6.92853 33.0581 6.93001 33.0684C6.93444 33.101 6.9374 33.1321 6.94923 33.1631L16.8191 58.5073C16.8213 58.511 16.8258 58.5132 16.8273 58.5176C16.8295 58.5243 16.831 58.5295 16.8339 58.5339C16.8346 58.5354 16.8346 58.5376 16.8346 58.5391C16.8361 58.5398 16.8369 58.542 16.8369 58.5443C16.8398 58.5487 16.8443 58.5524 16.8472 58.5568C16.8635 58.585 16.8812 58.6116 16.9034 58.6345C16.9064 58.6375 16.9108 58.6397 16.9145 58.6434C16.9174 58.6464 16.9197 58.6516 16.9234 58.6545C16.9241 58.6545 16.9248 58.6553 16.9263 58.656C16.9263 58.6567 16.9263 58.6567 16.9271 58.6575C16.9337 58.6627 16.9418 58.6664 16.9485 58.6723C16.9707 58.6878 16.9943 58.7026 17.0187 58.7145C17.0254 58.7174 17.0298 58.7234 17.035 58.7256L17.0387 58.727C17.0379 58.7256 17.0394 58.7256 17.0394 58.7256L42.4516 69.0565L42.4531 69.0573C42.4538 69.058 42.456 69.058 42.4568 69.058C42.4619 69.0595 42.4664 69.061 42.4708 69.0632C42.5122 69.0765 42.5543 69.0861 42.5972 69.0861H42.5987C42.6135 69.0861 42.629 69.0854 42.6445 69.0832C42.6601 69.0802 42.6741 69.0713 42.6889 69.0676C42.7118 69.0624 42.734 69.058 42.7562 69.0491C42.7599 69.0469 42.765 69.0484 42.7687 69.0462L42.7709 69.0454C42.7717 69.0454 42.7717 69.0439 42.7724 69.0439L65.158 58.0455L65.1654 58.0418C65.1669 58.0403 65.1676 58.0396 65.1691 58.0388C65.1736 58.0366 65.1765 58.0351 65.181 58.0329C65.1817 58.0329 65.1832 58.0329 65.1839 58.0322C65.1869 58.0307 65.1883 58.0277 65.192 58.0255C65.229 58.004 65.2637 57.9781 65.2918 57.9448C65.2918 57.9441 65.2926 57.9434 65.2933 57.9426C65.2933 57.9419 65.2933 57.9419 65.2941 57.9419C65.2941 57.9411 65.2948 57.9411 65.2955 57.9404C65.2963 57.9389 65.2963 57.9374 65.297 57.9352C65.3007 57.9322 65.3029 57.9293 65.3059 57.9248C65.3111 57.9182 65.3133 57.91 65.317 57.9034C65.3295 57.8856 65.3436 57.8671 65.3517 57.8457C65.3547 57.8405 65.3539 57.8346 65.3562 57.8309C65.3584 57.8227 65.3636 57.8175 65.3658 57.8101C65.3665 57.8072 65.3672 57.805 65.3687 57.8013C65.3717 57.7909 65.3695 57.7805 65.3717 57.7702C65.3739 57.762 65.3798 57.7561 65.3806 57.7495L68.966 32.7546C68.9674 32.7435 68.9623 32.7332 68.963 32.7221C68.9586 32.7051 68.9645 32.6873 68.963 32.6703ZM55.8559 49.669L50.1983 45.0112L51.2096 41.8031L54.7699 40.0255L58.2622 46.3329L55.8559 49.669ZM58.6777 47.0788L63.6773 56.1103L56.4525 50.1611L58.6777 47.0788ZM21.2835 46.6015L23.2758 40.2697L27.5724 42.1073L28.9696 44.6537L24.3973 49.7474L21.2835 46.6015ZM23.8798 50.3232L18.0796 56.783L21.0218 47.4341L23.8798 50.3232ZM62.4782 32.3432L54.1778 32.3876L55.2896 28.8591L62.3769 31.1229L62.4782 32.3432ZM63.1709 31.3767L66.1368 32.3232L63.253 32.3387L63.1709 31.3767ZM53.369 32.3913L51.4321 32.4024L48.2215 26.6027L54.5555 28.626L53.369 32.3913ZM25.4648 33.3112L34.7174 33.2623L37.2923 35.3833L30.7779 42.6408L28.1188 41.5034L24.7936 35.4432L25.4648 33.3112ZM24.2812 34.5048L23.6314 33.32L24.656 33.3141L24.2812 34.5048ZM28.308 24.2753L33.6433 21.9471L36.6757 22.9151L37.8304 32.4734L34.9917 32.489L27.6308 26.4288L28.308 24.2753ZM26.9884 25.8997L26.1575 25.2151L27.3721 24.6853L26.9884 25.8997ZM34.7137 21.4794L36.4125 20.7379L36.5744 22.0744L34.7137 21.4794ZM47.1511 26.2608L50.5532 32.4068L40.9561 32.4572L46.6609 26.1047L47.1511 26.2608ZM39.9152 32.4623L38.6059 32.4697L37.4815 23.1734L45.8544 25.8479L39.9152 32.4623ZM37.8083 34.809L35.9209 33.2557L37.9229 33.2438L38.0759 34.5108L37.8083 34.809ZM38.6983 33.2409L39.2188 33.2379L38.7604 33.7485L38.6983 33.2409ZM33.7859 32.4956L25.708 32.5378L27.3817 27.2206L33.7859 32.4956ZM37.8889 35.8739L38.2799 36.1958L39.5101 46.3751L31.5268 42.9605L37.8889 35.8739ZM39.1419 36.9055L46.7489 43.1692L40.2892 46.395L39.1419 36.9055ZM39.0074 35.7962L38.8832 34.7653L40.2597 33.232L50.9782 33.175L52.3444 35.6423L50.5739 41.2592L47.503 42.7918L39.0074 35.7962ZM51.8572 33.1705L53.1258 33.1639L52.6638 34.6284L51.8572 33.1705ZM47.6767 25.6199L47.4549 25.2174L52.7613 19.3089L56.4658 22.5651L54.7877 27.8896L47.6767 25.6199ZM53.2759 18.7346L60.0534 11.1847L56.7193 21.7614L53.2759 18.7346ZM52.697 18.2255L49.2025 15.1543L59.4827 10.6667L52.697 18.2255ZM52.1825 18.799L47.0601 24.504L43.3084 17.7274L48.4241 15.4955L52.1825 18.799ZM46.5146 25.1115L46.4192 25.2174L37.3795 22.3319L37.1488 20.4175L42.5987 18.0382L46.5146 25.1115ZM37.052 19.616L36.2255 12.7795L39.4827 12.4117L42.2224 17.3596L37.052 19.616ZM36.1338 12.0136L35.2586 4.78266L39.0791 11.682L36.1338 12.0136ZM35.368 12.1002L32.0213 12.4776L34.472 4.68571L35.368 12.1002ZM35.4604 12.8661L36.315 19.9387L33.5996 21.1242L29.6926 19.8758L31.7678 13.282L35.4604 12.8661ZM32.5292 21.5919L28.6155 23.2999L29.4613 20.6113L32.5292 21.5919ZM27.6774 23.7092L25.4892 24.6638L19.7141 19.9098L21.4085 18.0405L28.7264 20.3775L27.6774 23.7092ZM19.1182 19.4184L14.934 15.972L20.6012 17.7822L19.1182 19.4184ZM18.5993 19.9897L17.1784 21.5579L14.4402 16.5648L18.5993 19.9897ZM19.1951 20.4804L24.696 25.0101L20.1599 26.9912L17.571 22.2735L19.1951 20.4804ZM25.3643 25.5607L26.7393 26.693L24.8985 32.543L23.2093 32.5519L20.5302 27.6706L25.3643 25.5607ZM22.3333 32.5563L15.1661 32.5948L14.9355 30.1127L19.8235 27.9792L22.3333 32.5563ZM14.3921 32.5978L9.17884 32.6259L14.191 30.4376L14.3921 32.5978ZM14.4631 33.3696L14.6856 35.7577L9.16702 33.3977L14.4631 33.3696ZM15.2371 33.3652L22.7547 33.3252L23.9604 35.5239L22.7953 39.2256L15.4921 36.1026L15.2371 33.3652ZM24.4742 36.4608L26.9707 41.0127L23.5072 39.5312L24.4742 36.4608ZM28.7205 42.6001L30.2338 43.2469L29.5152 44.0476L28.7205 42.6001ZM30.9819 43.5674L39.0451 47.0152L32.8419 50.113L29.9078 44.7633L30.9819 43.5674ZM39.6549 47.5732L41.9748 66.7646L33.213 50.7894L39.6549 47.5732ZM40.4356 47.6094L47.605 50.6769L42.6911 66.268L40.4356 47.6094ZM40.8806 46.9619L47.4002 43.7065L49.3075 45.2776L47.8393 49.9383L40.8806 46.9619ZM48.1543 43.3283L50.2508 42.2812L49.5574 44.4835L48.1543 43.3283ZM51.5327 40.7796L52.8597 36.571L54.3966 39.3499L51.5327 40.7796ZM53.179 35.5564L53.9338 33.1594L62.544 33.1136L62.7177 35.1946L55.0871 39.005L53.179 35.5564ZM63.3165 33.1106L66.9323 33.0914L63.4622 34.8245L63.3165 33.1106ZM63.1014 30.5456L62.9062 28.2263L66.9382 31.7704L63.1014 30.5456ZM62.3067 30.2911L55.5225 28.1242L57.0986 23.1216L62.0724 27.4922L62.3067 30.2911ZM57.3522 22.3179L60.735 11.5836L61.9792 26.3844L57.3522 22.3179ZM48.5631 14.5926L45.3325 11.7538L58.4574 10.2737L48.5631 14.5926ZM47.7824 14.933L42.9321 17.0503L40.3129 12.3192L44.2983 11.8708L47.7824 14.933ZM39.9093 11.5888L36.0518 4.62207L43.5146 11.1818L39.9093 11.5888ZM31.1815 12.5723L25.8137 13.1769L33.7431 4.42966L31.1815 12.5723ZM30.9294 13.3767L28.9593 19.6412L21.9777 17.4114L25.0316 14.0413L30.9294 13.3767ZM21.1704 17.1546L14.9739 15.1765L23.8724 14.1723L21.1704 17.1546ZM16.6314 22.1617L14.4217 24.6002L13.6957 16.8098L16.6314 22.1617ZM17.0232 22.8773L19.4502 27.3013L14.8586 29.3053L14.5178 25.6429L17.0232 22.8773ZM14.1156 29.6302L8.80108 31.9495L13.817 26.4155L14.1156 29.6302ZM14.7669 36.6317L15.1151 40.3659L8.96742 34.1518L14.7669 36.6317ZM15.5749 36.9758L22.5632 39.9656L20.6699 45.9821L15.9682 41.2311L15.5749 36.9758ZM20.4082 46.8139L17.3839 56.4255L16.0828 42.441L20.4082 46.8139ZM24.4224 50.873L26.7031 53.1782L18.8188 57.1152L24.4224 50.873ZM24.9392 50.2987L29.3622 45.3723L32.1514 50.4579L27.4283 52.8164L24.9392 50.2987ZM32.524 51.1335L40.9354 66.4701L28.0005 53.3928L32.524 51.1335ZM48.3169 50.9811L53.3535 53.1346L43.2056 67.1953L48.3169 50.9811ZM48.5512 50.241L49.9499 45.8045L55.4042 50.2958L53.8177 52.4937L48.5512 50.241ZM56.0008 50.7872L62.6734 56.282L54.5437 52.8053L56.0008 50.7872ZM59.1759 46.3876L63.1916 40.8233L64.4609 55.9327L59.1759 46.3876ZM58.7627 45.6424L55.4619 39.6799L62.7887 36.0212L63.0925 39.6429L58.7627 45.6424ZM63.5294 35.6519L67.3485 33.7448L63.7852 38.6838L63.5294 35.6519ZM62.8138 27.1185L61.6125 12.8217L67.7691 31.4729L62.8138 27.1185ZM44.5504 11.0656L36.1028 3.64004L58.8233 9.45526L44.5504 11.0656ZM24.656 13.3086L14.9798 14.3987L32.7532 4.37342L24.656 13.3086ZM12.9291 16.8964L13.7194 25.3757L8.22593 31.4344L12.9291 16.8964ZM15.2282 41.5774L16.5397 55.6633L8.34348 34.6166L15.2282 41.5774ZM27.2738 53.7555L41.0004 67.6334L18.1143 58.3296L27.2738 53.7555ZM54.0809 53.4454L64.0706 57.7184L43.8148 67.6704L54.0809 53.4454ZM65.0952 54.2816L63.8843 39.8642L67.9754 34.1955L65.0952 54.2816Z" fill="url(#paint0_linear_338_70)"/>
<path d="M76.0385 36.4104H0.046875V49.322H76.0385V36.4104Z" fill="url(#paint1_linear_338_70)"/>
<path d="M12.6691 40.5264H12.0602L10.9224 43.5787L10.7447 44.1602L10.6016 43.5787L9.52667 40.5264H8.70312L9.10189 41.29L10.4651 45.0906L10.8964 45.1805L12.6691 40.5264Z" fill="#F2F2F2"/>
<path d="M13.4404 45.0906H15.6315L15.7702 44.5771H14.0581V43.0103H15.3519L15.4884 42.4969H14.0581V41.0398H15.6943V40.5264H13.3516L13.4404 41.1649V45.0906Z" fill="#F2F2F2"/>
<path d="M20.0624 45.0906L18.6581 43.2034C19.1999 42.9467 19.5336 42.442 19.5336 41.9C19.5336 40.963 18.8076 40.5264 18.0556 40.5264H16.7812L16.8701 41.1649V45.0906H17.5549L17.4878 44.5705V43.3834C17.8909 43.3834 17.9862 43.3834 18.0621 43.3768L19.2671 45.0906H20.0624ZM17.4878 42.8699V41.0398H17.932C18.4392 41.0398 18.8835 41.3317 18.8835 41.9C18.8835 42.4267 18.4392 42.8699 17.932 42.8699H17.4878Z" fill="#F2F2F2"/>
<path d="M20.0234 41.0552H21.4625V45.0906H22.1473L22.078 44.5705V41.0552H23.5582V40.5264H20.0234V41.0552Z" fill="#F2F2F2"/>
<path d="M24.3623 45.0906H26.5555L26.6921 44.5771H24.98V43.0103H26.2738L26.4103 42.4969H24.98V41.0398H26.6162V40.5264H24.2734L24.3623 41.1649V45.0906Z" fill="#F2F2F2"/>
<path d="M27.0859 45.0906H27.7361L28.5922 43.5436L28.7027 43.3L28.8045 43.5304L29.6541 45.0906H30.3866L29.0711 42.7185L30.3519 40.5264H29.7083L28.8934 41.9768L28.8045 42.1919L28.7027 41.9768L27.9008 40.5264H27.0989L27.4544 41.0201L28.4209 42.7734L27.0859 45.0906Z" fill="#F2F2F2"/>
<path d="M33.042 45.0906H35.233L35.3696 44.5771H33.6575V43.0103H34.9535L35.09 42.4969H33.6575V41.0398H35.2959V40.5264H32.9531L33.042 41.1649V45.0906Z" fill="#F2F2F2"/>
<path d="M36.3828 40.5264L36.4717 41.1649V45.0906H37.1565L37.0872 44.5705V43.3834H37.4231C38.4092 43.3834 39.1352 42.69 39.1352 41.9C39.1352 40.963 38.4092 40.5264 37.6571 40.5264H36.3828ZM37.0872 42.8699V41.0398H37.5336C38.0407 41.0398 38.485 41.3317 38.485 41.9C38.485 42.4969 38.0407 42.8699 37.5336 42.8699H37.0872Z" fill="#F2F2F2"/>
<path d="M43.3649 41.0105C42.9618 40.6352 42.4959 40.4399 41.9281 40.4399C40.7209 40.4399 39.75 41.4801 39.75 42.902C39.75 44.3875 40.7773 45.1775 41.837 45.1775C42.7689 45.1775 43.4278 44.5741 43.4278 44.5741L43.2761 44.0606C43.2761 44.0606 42.5717 44.6421 41.9476 44.6421C41.1804 44.6421 40.4067 43.9487 40.4067 42.834C40.4067 41.8684 41.0157 40.9534 41.8999 40.9534C42.3507 40.9534 42.7278 41.1421 43.0507 41.4801L43.3649 41.0105Z" fill="#F2F2F2"/>
<path d="M49.4634 42.834H48.7569L48.8739 43.3474L48.8674 44.5609C48.8674 44.5609 48.4015 44.6772 48.0309 44.6772C47.2507 44.6772 46.477 43.9574 46.477 42.834C46.477 41.8684 47.1206 40.9534 47.9702 40.9534C48.421 40.9534 48.7981 41.1421 49.121 41.4801L49.4352 41.0105C49.0321 40.6352 48.5315 40.4399 47.9637 40.4399C46.7587 40.4399 45.8203 41.4801 45.8203 42.902C45.8203 44.3875 46.8476 45.1775 47.9074 45.1775C48.7786 45.1775 49.4699 44.9142 49.4699 44.9142L49.4634 42.834Z" fill="#F2F2F2"/>
<path d="M53.9821 45.0906L52.5778 43.2034C53.1196 42.9467 53.4555 42.442 53.4555 41.9C53.4555 40.963 52.7295 40.5264 51.9753 40.5264H50.7031L50.792 41.1649V45.0906H51.4768L51.4075 44.5705V43.3834C51.8106 43.3834 51.9081 43.3834 51.9818 43.3768L53.1889 45.0906H53.9821ZM51.4075 42.8699V41.0398H51.8518C52.3589 41.0398 52.8053 41.3317 52.8053 41.9C52.8053 42.4267 52.3589 42.8699 51.8518 42.8699H51.4075Z" fill="#F2F2F2"/>
<path d="M56.4139 40.4399C55.2436 40.4399 54.3594 41.5086 54.3594 42.8471C54.3594 44.1308 55.0724 45.1775 56.325 45.1775C57.4954 45.1775 58.3926 44.1089 58.3926 42.7637C58.3926 41.4318 57.7359 40.4399 56.4139 40.4399ZM55.0312 42.8054C55.0312 41.7719 55.5709 40.9337 56.3792 40.9337C57.1876 40.9337 57.7229 41.7719 57.7229 42.8054C57.7229 43.839 57.1876 44.6772 56.3792 44.6772C55.5709 44.6772 55.0312 43.839 55.0312 42.8054Z" fill="#F2F2F2"/>
<path d="M62.3861 43.3417C62.3861 44.0768 61.9137 44.6736 61.2375 44.6736C60.5657 44.6736 60.0715 44.1251 60.0715 43.39V40.5264H59.3672L59.456 41.1649V43.447C59.456 43.5567 59.4972 45.1805 61.114 45.1805C62.2366 45.1805 62.9626 44.3906 62.9626 43.2671V40.5264H62.2973L62.3861 41.1649V43.3417Z" fill="#F2F2F2"/>
<path d="M64.3672 40.5264L64.456 41.1649V45.0906H65.1409L65.0715 44.5705V43.3834H65.4075C66.3935 43.3834 67.1196 42.69 67.1196 41.9C67.1196 40.963 66.3935 40.5264 65.6393 40.5264H64.3672ZM65.0715 42.8699V41.0398H65.518C66.0229 41.0398 66.4694 41.3317 66.4694 41.9C66.4694 42.4969 66.0229 42.8699 65.518 42.8699H65.0715Z" fill="#F2F2F2"/>
<mask id="mask0_338_70" style="mask-type:luminance" maskUnits="userSpaceOnUse" x="11" y="13" width="5" height="4">
<path d="M12.9036 13.2313C12.0118 13.5405 11.5314 14.518 11.8305 15.4146C12.1297 16.3113 13.0951 16.7876 13.9869 16.4784C14.8786 16.1693 15.3591 15.1918 15.0599 14.2951C14.7608 13.3985 13.7954 12.9222 12.9036 13.2313Z" fill="white"/>
</mask>
<g mask="url(#mask0_338_70)">
<path d="M12.9036 13.2313C12.0118 13.5405 11.5314 14.518 11.8305 15.4146C12.1297 16.3113 13.0951 16.7876 13.9869 16.4784C14.8786 16.1693 15.3591 15.1918 15.0599 14.2951C14.7608 13.3985 13.7954 12.9222 12.9036 13.2313Z" fill="url(#paint2_linear_338_70)" stroke="url(#paint3_linear_338_70)" stroke-width="2.5"/>
</g>
<mask id="mask1_338_70" style="mask-type:luminance" maskUnits="userSpaceOnUse" x="66" y="30" width="4" height="5">
<path d="M69.8389 31.8179C69.5254 30.9262 68.5524 30.4658 67.6656 30.7894C66.7789 31.113 66.3142 32.0981 66.6277 32.9898C66.9412 33.8814 67.9142 34.3419 68.8009 34.0183C69.6877 33.6947 70.1524 32.7095 69.8389 31.8179Z" fill="white"/>
</mask>
<g mask="url(#mask1_338_70)">
<path d="M69.8389 31.8179C69.5254 30.9262 68.5524 30.4658 67.6656 30.7894C66.7789 31.113 66.3142 32.0981 66.6277 32.9898C66.9412 33.8814 67.9142 34.3419 68.8009 34.0183C69.6877 33.6947 70.1524 32.7095 69.8389 31.8179Z" fill="url(#paint4_linear_338_70)" stroke="url(#paint5_linear_338_70)" stroke-width="2.5"/>
</g>
<mask id="mask2_338_70" style="mask-type:luminance" maskUnits="userSpaceOnUse" x="15" y="55" width="5" height="5">
<path d="M19.009 57.6437C19.009 56.6932 18.2479 55.9226 17.3092 55.9226C16.3704 55.9226 15.6094 56.6932 15.6094 57.6437C15.6094 58.5942 16.3704 59.3647 17.3092 59.3647C18.2479 59.3647 19.009 58.5942 19.009 57.6437Z" fill="white"/>
</mask>
<g mask="url(#mask2_338_70)">
<path d="M19.009 57.6437C19.009 56.6932 18.2479 55.9226 17.3092 55.9226C16.3704 55.9226 15.6094 56.6932 15.6094 57.6437C15.6094 58.5942 16.3704 59.3647 17.3092 59.3647C18.2479 59.3647 19.009 58.5942 19.009 57.6437Z" fill="url(#paint6_linear_338_70)" stroke="url(#paint7_linear_338_70)" stroke-width="2.5"/>
</g>
<mask id="mask3_338_70" style="mask-type:luminance" maskUnits="userSpaceOnUse" x="59" y="7" width="4" height="4">
<path d="M59.2379 8.76063C59.0449 9.68705 59.6349 10.6013 60.5557 10.8026C61.4765 11.0039 62.3794 10.4161 62.5724 9.48968C62.7654 8.56326 62.1754 7.64905 61.2546 7.44773C60.3338 7.24641 59.4309 7.83422 59.2379 8.76063Z" fill="white"/>
</mask>
<g mask="url(#mask3_338_70)">
<path d="M59.2379 8.76063C59.0449 9.68705 59.6349 10.6013 60.5557 10.8026C61.4765 11.0039 62.3794 10.4161 62.5724 9.48968C62.7654 8.56326 62.1754 7.64905 61.2546 7.44773C60.3338 7.24641 59.4309 7.83422 59.2379 8.76063Z" fill="url(#paint8_linear_338_70)" stroke="url(#paint9_linear_338_70)" stroke-width="2.5"/>
</g>
<mask id="mask4_338_70" style="mask-type:luminance" maskUnits="userSpaceOnUse" x="33" y="0" width="4" height="5">
<path d="M35.2957 0.706241C34.396 0.421732 33.4439 0.924432 33.1691 1.82905C32.8944 2.73367 33.401 3.69766 34.3007 3.98216C35.2003 4.26667 36.1524 3.76397 36.4272 2.85935C36.7019 1.95473 36.1953 0.990751 35.2957 0.706241Z" fill="white"/>
</mask>
<g mask="url(#mask4_338_70)">
<path d="M35.2957 0.706241C34.396 0.421732 33.4439 0.924432 33.1691 1.82905C32.8944 2.73367 33.401 3.69766 34.3007 3.98216C35.2003 4.26667 36.1524 3.76397 36.4272 2.85935C36.7019 1.95473 36.1953 0.990751 35.2957 0.706241Z" fill="url(#paint10_linear_338_70)" stroke="url(#paint11_linear_338_70)" stroke-width="2.5"/>
</g>
<mask id="mask5_338_70" style="mask-type:luminance" maskUnits="userSpaceOnUse" x="5" y="30" width="5" height="5">
<path d="M7.28527 34.1039C8.21447 34.2573 9.08637 33.6231 9.23272 32.6875C9.37908 31.7518 8.74446 30.869 7.81527 30.7156C6.88607 30.5623 6.01417 31.1965 5.86782 32.1321C5.72146 33.0678 6.35608 33.9506 7.28527 34.1039Z" fill="white"/>
</mask>
<g mask="url(#mask5_338_70)">
<path d="M7.28527 34.1039C8.21447 34.2573 9.08637 33.6231 9.23272 32.6875C9.37908 31.7518 8.74446 30.869 7.81527 30.7156C6.88607 30.5623 6.01417 31.1965 5.86782 32.1321C5.72146 33.0678 6.35608 33.9506 7.28527 34.1039Z" fill="url(#paint12_linear_338_70)" stroke="url(#paint13_linear_338_70)" stroke-width="2.5"/>
</g>
<mask id="mask6_338_70" style="mask-type:luminance" maskUnits="userSpaceOnUse" x="40" y="66" width="5" height="4">
<path d="M40.7437 68.2963C40.8077 69.2429 41.6198 69.9554 42.5575 69.8878C43.4951 69.8201 44.2034 68.9979 44.1394 68.0513C44.0753 67.1048 43.2633 66.3922 42.3256 66.4599C41.3879 66.5275 40.6797 67.3497 40.7437 68.2963Z" fill="white"/>
</mask>
<g mask="url(#mask6_338_70)">
<path d="M40.7437 68.2963C40.8077 69.2429 41.6198 69.9554 42.5575 69.8878C43.4951 69.8201 44.2034 68.9979 44.1394 68.0513C44.0753 67.1048 43.2633 66.3922 42.3256 66.4599C41.3879 66.5275 40.6797 67.3497 40.7437 68.2963Z" fill="url(#paint14_linear_338_70)" stroke="url(#paint15_linear_338_70)" stroke-width="2.5"/>
</g>
<mask id="mask7_338_70" style="mask-type:luminance" maskUnits="userSpaceOnUse" x="63" y="55" width="4" height="4">
<path d="M64.0265 58.603C64.8726 59.0226 65.8903 58.6725 66.2996 57.821C66.7088 56.9695 66.3547 55.939 65.5086 55.5193C64.6625 55.0997 63.6448 55.4498 63.2355 56.3014C62.8262 57.1529 63.1804 58.1834 64.0265 58.603Z" fill="white"/>
</mask>
<g mask="url(#mask7_338_70)">
<path d="M64.0265 58.603C64.8726 59.0226 65.8903 58.6725 66.2996 57.821C66.7088 56.9695 66.3547 55.939 65.5086 55.5193C64.6625 55.0997 63.6448 55.4498 63.2355 56.3014C62.8262 57.1529 63.1804 58.1834 64.0265 58.603Z" fill="url(#paint16_linear_338_70)" stroke="url(#paint17_linear_338_70)" stroke-width="2.5"/>
</g>
</g>
<defs>
<linearGradient id="paint0_linear_338_70" x1="6.92188" y1="2.48242" x2="69.0359" y2="69.0211" gradientUnits="userSpaceOnUse">
<stop stop-color="#8F5E25"/>
<stop offset="0.5" stop-color="#FBF4A1"/>
<stop offset="1" stop-color="#8F5E25"/>
</linearGradient>
<linearGradient id="paint1_linear_338_70" x1="0.046875" y1="36.4104" x2="4.31135" y2="61.5091" gradientUnits="userSpaceOnUse">
<stop stop-color="#4771E8"/>
<stop offset="1" stop-color="#2FACEE"/>
</linearGradient>
<linearGradient id="paint2_linear_338_70" x1="15.6016" y1="15.9187" x2="9.76876" y2="13.052" gradientUnits="userSpaceOnUse">
<stop stop-color="#8F5E25"/>
<stop offset="0.64" stop-color="#FBF4A1"/>
<stop offset="1" stop-color="#8F5E25"/>
</linearGradient>
<linearGradient id="paint3_linear_338_70" x1="15.6016" y1="15.9187" x2="9.76876" y2="13.052" gradientUnits="userSpaceOnUse">
<stop stop-color="#8F5E25"/>
<stop offset="0.64" stop-color="#FBF4A1"/>
<stop offset="1" stop-color="#8F5E25"/>
</linearGradient>
<linearGradient id="paint4_linear_338_70" x1="67.1953" y1="34.6042" x2="70.0085" y2="28.6602" gradientUnits="userSpaceOnUse">
<stop stop-color="#8F5E25"/>
<stop offset="0.64" stop-color="#FBF4A1"/>
<stop offset="1" stop-color="#8F5E25"/>
</linearGradient>
<linearGradient id="paint5_linear_338_70" x1="67.1953" y1="34.6042" x2="70.0085" y2="28.6602" gradientUnits="userSpaceOnUse">
<stop stop-color="#8F5E25"/>
<stop offset="0.64" stop-color="#FBF4A1"/>
<stop offset="1" stop-color="#8F5E25"/>
</linearGradient>
<linearGradient id="paint6_linear_338_70" x1="15.6094" y1="59.3647" x2="20.261" y2="54.7706" gradientUnits="userSpaceOnUse">
<stop stop-color="#8F5E25"/>
<stop offset="0.64" stop-color="#FBF4A1"/>
<stop offset="1" stop-color="#8F5E25"/>
</linearGradient>
<linearGradient id="paint7_linear_338_70" x1="15.6094" y1="59.3647" x2="20.261" y2="54.7706" gradientUnits="userSpaceOnUse">
<stop stop-color="#8F5E25"/>
<stop offset="0.64" stop-color="#FBF4A1"/>
<stop offset="1" stop-color="#8F5E25"/>
</linearGradient>
<linearGradient id="paint8_linear_338_70" x1="62.9219" y1="7.81226" x2="57.4567" y2="11.3393" gradientUnits="userSpaceOnUse">
<stop stop-color="#8F5E25"/>
<stop offset="0.64" stop-color="#FBF4A1"/>
<stop offset="1" stop-color="#8F5E25"/>
</linearGradient>
<linearGradient id="paint9_linear_338_70" x1="62.9219" y1="7.81226" x2="57.4567" y2="11.3393" gradientUnits="userSpaceOnUse">
<stop stop-color="#8F5E25"/>
<stop offset="0.64" stop-color="#FBF4A1"/>
<stop offset="1" stop-color="#8F5E25"/>
</linearGradient>
<linearGradient id="paint10_linear_338_70" x1="35.9297" y1="4.49731" x2="32.8599" y2="-1.31655" gradientUnits="userSpaceOnUse">
<stop stop-color="#8F5E25"/>
<stop offset="0.64" stop-color="#FBF4A1"/>
<stop offset="1" stop-color="#8F5E25"/>
</linearGradient>
<linearGradient id="paint11_linear_338_70" x1="35.9297" y1="4.49731" x2="32.8599" y2="-1.31655" gradientUnits="userSpaceOnUse">
<stop stop-color="#8F5E25"/>
<stop offset="0.64" stop-color="#FBF4A1"/>
<stop offset="1" stop-color="#8F5E25"/>
</linearGradient>
<linearGradient id="paint12_linear_338_70" x1="6.13281" y1="30.438" x2="9.99375" y2="35.7462" gradientUnits="userSpaceOnUse">
<stop stop-color="#8F5E25"/>
<stop offset="0.64" stop-color="#FBF4A1"/>
<stop offset="1" stop-color="#8F5E25"/>
</linearGradient>
<linearGradient id="paint13_linear_338_70" x1="6.13281" y1="30.438" x2="9.99375" y2="35.7462" gradientUnits="userSpaceOnUse">
<stop stop-color="#8F5E25"/>
<stop offset="0.64" stop-color="#FBF4A1"/>
<stop offset="1" stop-color="#8F5E25"/>
</linearGradient>
<linearGradient id="paint14_linear_338_70" x1="44.0234" y1="66.3374" x2="39.7026" y2="71.2618" gradientUnits="userSpaceOnUse">
<stop stop-color="#8F5E25"/>
<stop offset="0.64" stop-color="#FBF4A1"/>
<stop offset="1" stop-color="#8F5E25"/>
</linearGradient>
<linearGradient id="paint15_linear_338_70" x1="44.0234" y1="66.3374" x2="39.7026" y2="71.2618" gradientUnits="userSpaceOnUse">
<stop stop-color="#8F5E25"/>
<stop offset="0.64" stop-color="#FBF4A1"/>
<stop offset="1" stop-color="#8F5E25"/>
</linearGradient>
<linearGradient id="paint16_linear_338_70" x1="63.9766" y1="54.7595" x2="66.1166" y2="60.9801" gradientUnits="userSpaceOnUse">
<stop stop-color="#8F5E25"/>
<stop offset="0.64" stop-color="#FBF4A1"/>
<stop offset="1" stop-color="#8F5E25"/>
</linearGradient>
<linearGradient id="paint17_linear_338_70" x1="63.9766" y1="54.7595" x2="66.1166" y2="60.9801" gradientUnits="userSpaceOnUse">
<stop stop-color="#8F5E25"/>
<stop offset="0.64" stop-color="#FBF4A1"/>
<stop offset="1" stop-color="#8F5E25"/>
</linearGradient>
<clipPath id="clip0_338_70">
<rect width="76" height="70" rx="16" fill="white"/>
</clipPath>
</defs>
</svg>
