<svg width="213" height="85" viewBox="0 0 213 85" fill="none" xmlns="http://www.w3.org/2000/svg">
<path d="M10.96 29L0.44 0.719999H5.08L13.92 25.4L22.72 0.719999H27.28L16.84 29H10.96ZM37.5813 29.24C35.3679 29.24 33.5146 28.7867 32.0213 27.88C30.5279 26.9733 29.3946 25.72 28.6213 24.12C27.8746 22.4933 27.5013 20.6267 27.5013 18.52C27.5013 16.3867 27.8879 14.5067 28.6613 12.88C29.4613 11.2533 30.6079 9.97333 32.1013 9.04C33.6213 8.10667 35.4479 7.64 37.5813 7.64C39.2079 7.64 40.6213 7.94667 41.8213 8.56C43.0213 9.14667 44.0079 9.94667 44.7813 10.96C45.5813 11.9733 46.1679 13.1067 46.5413 14.36C46.9146 15.5867 47.0746 16.8667 47.0213 18.2C47.0213 18.4933 47.0079 18.7733 46.9813 19.04C46.9546 19.3067 46.9279 19.5867 46.9012 19.88H31.6612C31.7413 20.9467 32.0079 21.92 32.4613 22.8C32.9413 23.68 33.6079 24.3867 34.4613 24.92C35.3146 25.4267 36.3679 25.68 37.6213 25.68C38.3146 25.68 38.9813 25.6 39.6213 25.44C40.2879 25.2533 40.8746 24.9733 41.3813 24.6C41.9146 24.2 42.2879 23.6933 42.5013 23.08H46.6613C46.3146 24.4933 45.6879 25.6667 44.7813 26.6C43.9013 27.5067 42.8213 28.1733 41.5413 28.6C40.2879 29.0267 38.9679 29.24 37.5813 29.24ZM31.7413 16.6H42.9413C42.9146 15.56 42.6746 14.64 42.2213 13.84C41.7679 13.0133 41.1413 12.3733 40.3413 11.92C39.5413 11.44 38.5813 11.2 37.4613 11.2C36.2346 11.2 35.2079 11.4533 34.3813 11.96C33.5813 12.4667 32.9546 13.1333 32.5013 13.96C32.0746 14.76 31.8213 15.64 31.7413 16.6ZM51.27 29V7.92H55.15L55.35 10.96C55.8833 10.1333 56.4967 9.48 57.19 9C57.8833 8.52 58.6433 8.17333 59.47 7.96C60.2967 7.74667 61.1633 7.64 62.07 7.64C62.31 7.64 62.5367 7.64 62.75 7.64C62.9633 7.64 63.1633 7.64 63.35 7.64V11.6H62.07C60.55 11.6 59.2833 11.9067 58.27 12.52C57.2833 13.1333 56.55 13.9867 56.07 15.08C55.6167 16.1733 55.39 17.4267 55.39 18.84V29H51.27ZM74.6253 29.24C72.3586 29.24 70.732 28.6267 69.7453 27.4C68.7853 26.1467 68.3053 24.4 68.3053 22.16V11.6H64.9453V7.92H68.3053V1.8H72.4253V7.92H78.8653V11.6H72.4253V21.48C72.4253 22.2267 72.492 22.9067 72.6253 23.52C72.7853 24.1333 73.0786 24.6133 73.5053 24.96C73.932 25.3067 74.5453 25.4933 75.3453 25.52C75.9586 25.52 76.492 25.4133 76.9453 25.2C77.4253 24.9867 77.812 24.7467 78.1053 24.48L79.7053 27.56C79.1986 27.96 78.6653 28.2933 78.1053 28.56C77.572 28.8 77.012 28.9733 76.4253 29.08C75.8386 29.1867 75.2386 29.24 74.6253 29.24ZM91.9563 29.24C89.7429 29.24 87.8896 28.7867 86.3963 27.88C84.9029 26.9733 83.7696 25.72 82.9963 24.12C82.2496 22.4933 81.8763 20.6267 81.8763 18.52C81.8763 16.3867 82.2629 14.5067 83.0363 12.88C83.8363 11.2533 84.9829 9.97333 86.4763 9.04C87.9963 8.10667 89.8229 7.64 91.9563 7.64C93.5829 7.64 94.9963 7.94667 96.1963 8.56C97.3963 9.14667 98.3829 9.94667 99.1563 10.96C99.9563 11.9733 100.543 13.1067 100.916 14.36C101.29 15.5867 101.45 16.8667 101.396 18.2C101.396 18.4933 101.383 18.7733 101.356 19.04C101.33 19.3067 101.303 19.5867 101.276 19.88H86.0362C86.1163 20.9467 86.3829 21.92 86.8363 22.8C87.3163 23.68 87.9829 24.3867 88.8363 24.92C89.6896 25.4267 90.7429 25.68 91.9963 25.68C92.6896 25.68 93.3563 25.6 93.9963 25.44C94.6629 25.2533 95.2496 24.9733 95.7563 24.6C96.2896 24.2 96.6629 23.6933 96.8763 23.08H101.036C100.69 24.4933 100.063 25.6667 99.1563 26.6C98.2763 27.5067 97.1963 28.1733 95.9163 28.6C94.6629 29.0267 93.3429 29.24 91.9563 29.24ZM86.1163 16.6H97.3163C97.2896 15.56 97.0496 14.64 96.5963 13.84C96.1429 13.0133 95.5163 12.3733 94.7163 11.92C93.9163 11.44 92.9563 11.2 91.8363 11.2C90.6096 11.2 89.5829 11.4533 88.7563 11.96C87.9563 12.4667 87.3296 13.1333 86.8763 13.96C86.4496 14.76 86.1963 15.64 86.1163 16.6ZM103.174 29L110.654 18.24L103.534 7.92H108.454L113.414 15.48L118.214 7.92H122.974L115.894 18.36L123.494 29H118.614L113.174 21.32L107.814 29H103.174ZM138.242 29V0.719999H157.722V4.6H142.482V13.08H155.962V16.92H142.482V25.12H157.722V29H138.242ZM162.812 29V0.719999H173.012C175.119 0.719999 176.932 1.05333 178.452 1.72C179.999 2.38667 181.186 3.42667 182.012 4.84C182.839 6.22667 183.252 8.02667 183.252 10.24C183.252 12.3733 182.772 14.16 181.812 15.6C180.879 17.04 179.599 18.1333 177.972 18.88C176.346 19.6 174.492 19.96 172.412 19.96H167.052V29H162.812ZM167.052 16.12H172.252C174.279 16.12 175.906 15.6533 177.132 14.72C178.359 13.76 178.972 12.2267 178.972 10.12C178.972 8.28 178.466 6.90667 177.452 6C176.439 5.06667 174.906 4.6 172.852 4.6H167.052V16.12ZM200.351 29.32C197.444 29.32 195.004 28.7067 193.031 27.48C191.084 26.2533 189.617 24.56 188.631 22.4C187.644 20.24 187.151 17.7467 187.151 14.92C187.151 12.0933 187.644 9.58667 188.631 7.4C189.644 5.21333 191.124 3.50667 193.071 2.28C195.044 1.02667 197.484 0.399999 200.391 0.399999C202.497 0.399999 204.337 0.746666 205.911 1.44C207.484 2.10667 208.751 3.06667 209.711 4.32C210.697 5.54667 211.351 7.01333 211.671 8.72H207.511C207.111 7.36 206.297 6.28 205.071 5.48C203.844 4.68 202.271 4.28 200.351 4.28C198.217 4.28 196.497 4.77333 195.191 5.76C193.911 6.74667 192.977 8.04 192.391 9.64C191.804 11.2133 191.511 12.92 191.511 14.76C191.511 16.6533 191.817 18.4133 192.431 20.04C193.044 21.6667 194.017 22.9733 195.351 23.96C196.684 24.9467 198.391 25.44 200.471 25.44C201.751 25.44 202.884 25.2667 203.871 24.92C204.857 24.5467 205.684 24.0267 206.351 23.36C207.017 22.6667 207.471 21.8667 207.711 20.96H212.151C211.804 22.6933 211.097 24.1867 210.031 25.44C208.964 26.6933 207.617 27.6533 205.991 28.32C204.364 28.9867 202.484 29.32 200.351 29.32ZM15 77.32C12.0667 77.32 9.61333 76.7067 7.64 75.48C5.69333 74.2533 4.22667 72.56 3.24 70.4C2.25333 68.2133 1.76 65.72 1.76 62.92C1.76 60.8133 2.02667 58.88 2.56 57.12C3.12 55.3333 3.94667 53.7867 5.04 52.48C6.13333 51.1733 7.49333 50.1733 9.12 49.48C10.7733 48.76 12.68 48.4 14.84 48.4C16.9467 48.4 18.8 48.7333 20.4 49.4C22 50.04 23.32 50.9733 24.36 52.2C25.4267 53.4267 26.1467 54.9067 26.52 56.64H22.04C21.8 55.7067 21.3467 54.92 20.68 54.28C20.04 53.64 19.2267 53.1467 18.24 52.8C17.28 52.4533 16.1867 52.28 14.96 52.28C13.36 52.28 12 52.56 10.88 53.12C9.76 53.68 8.84 54.4533 8.12 55.44C7.42667 56.4 6.92 57.52 6.6 58.8C6.28 60.08 6.12 61.44 6.12 62.88C6.12 64.8 6.42667 66.56 7.04 68.16C7.65333 69.76 8.61333 71.04 9.92 72C11.2267 72.96 12.9333 73.44 15.04 73.44C16.6667 73.44 18.0667 73.16 19.24 72.6C20.4133 72.0133 21.3333 71.1867 22 70.12C22.6667 69.0267 23.0133 67.7067 23.04 66.16H14.28V62.44H27.2V64.52C27.2 67.1067 26.72 69.36 25.76 71.28C24.8 73.2 23.4133 74.6933 21.6 75.76C19.7867 76.8 17.5867 77.32 15 77.32ZM31.4653 77V55.92H35.3453L35.5453 58.96C36.0786 58.1333 36.692 57.48 37.3853 57C38.0786 56.52 38.8386 56.1733 39.6653 55.96C40.492 55.7467 41.3586 55.64 42.2653 55.64C42.5053 55.64 42.732 55.64 42.9453 55.64C43.1586 55.64 43.3586 55.64 43.5453 55.64V59.6H42.2653C40.7453 59.6 39.4786 59.9067 38.4653 60.52C37.4786 61.1333 36.7453 61.9867 36.2653 63.08C35.812 64.1733 35.5853 65.4267 35.5853 66.84V77H31.4653ZM55.67 77.24C53.4833 77.24 51.63 76.8 50.11 75.92C48.59 75.0133 47.43 73.7467 46.63 72.12C45.8567 70.4933 45.47 68.6133 45.47 66.48C45.47 64.32 45.87 62.44 46.67 60.84C47.47 59.2133 48.63 57.9467 50.15 57.04C51.67 56.1067 53.5233 55.64 55.71 55.64C57.8967 55.64 59.75 56.1067 61.27 57.04C62.79 57.9467 63.9367 59.2133 64.71 60.84C65.4833 62.4667 65.87 64.36 65.87 66.52C65.87 68.6267 65.47 70.4933 64.67 72.12C63.8967 73.7467 62.75 75.0133 61.23 75.92C59.7367 76.8 57.8833 77.24 55.67 77.24ZM55.67 73.56C57.11 73.56 58.27 73.24 59.15 72.6C60.0567 71.96 60.7233 71.1067 61.15 70.04C61.5767 68.9467 61.79 67.76 61.79 66.48C61.79 65.2 61.5767 64.0267 61.15 62.96C60.7233 61.8933 60.0567 61.04 59.15 60.4C58.27 59.7333 57.11 59.4 55.67 59.4C54.2567 59.4 53.0967 59.7333 52.19 60.4C51.2833 61.04 50.6167 61.8933 50.19 62.96C49.79 64.0267 49.59 65.2 49.59 66.48C49.59 67.7867 49.79 68.9733 50.19 70.04C50.6167 71.1067 51.2833 71.96 52.19 72.6C53.0967 73.24 54.2567 73.56 55.67 73.56ZM79.1381 77.24C76.1781 77.24 73.9115 76.4667 72.3381 74.92C70.7915 73.3467 70.0181 70.96 70.0181 67.76V55.92H74.1381V67.52C74.1381 68.7733 74.3115 69.8533 74.6581 70.76C75.0315 71.6667 75.5915 72.36 76.3381 72.84C77.0848 73.32 78.0315 73.56 79.1781 73.56C80.3781 73.56 81.3381 73.32 82.0581 72.84C82.8048 72.3333 83.3381 71.6267 83.6581 70.72C84.0048 69.8133 84.1781 68.7467 84.1781 67.52V55.92H88.2981V67.76C88.2981 71.0133 87.4981 73.4133 85.8981 74.96C84.3248 76.48 82.0715 77.24 79.1381 77.24ZM93.2622 84.68V55.92H97.1822L97.3822 58.92C98.1289 57.8267 99.1022 57.0133 100.302 56.48C101.502 55.92 102.809 55.64 104.222 55.64C106.329 55.64 108.062 56.12 109.422 57.08C110.782 58.0133 111.796 59.3067 112.462 60.96C113.129 62.5867 113.462 64.4133 113.462 66.44C113.462 68.52 113.116 70.3733 112.422 72C111.756 73.6267 110.716 74.9067 109.302 75.84C107.916 76.7733 106.156 77.24 104.022 77.24C103.009 77.24 102.076 77.1333 101.222 76.92C100.396 76.7067 99.6622 76.4 99.0222 76C98.4089 75.5733 97.8622 75.08 97.3822 74.52V84.68H93.2622ZM103.502 73.56C104.942 73.56 106.089 73.24 106.942 72.6C107.796 71.9333 108.409 71.0667 108.782 70C109.156 68.9333 109.342 67.7733 109.342 66.52C109.342 65.2133 109.142 64.0267 108.742 62.96C108.369 61.8667 107.742 61 106.862 60.36C106.009 59.6933 104.862 59.36 103.422 59.36C102.116 59.36 101.009 59.6933 100.102 60.36C99.1955 61 98.5022 61.8667 98.0222 62.96C97.5689 64.0533 97.3422 65.24 97.3422 66.52C97.3422 67.8267 97.5555 69.0267 97.9822 70.12C98.4355 71.1867 99.1155 72.0267 100.022 72.64C100.956 73.2533 102.116 73.56 103.502 73.56Z" fill="url(#paint0_linear_261_1377)"/>
<defs>
<linearGradient id="paint0_linear_261_1377" x1="112.5" y1="-8" x2="112.5" y2="88" gradientUnits="userSpaceOnUse">
<stop stop-color="#F0B35C"/>
<stop offset="1" stop-color="#F4E463"/>
</linearGradient>
</defs>
</svg>
