<svg width="167" height="76" viewBox="0 0 167 76" fill="none" xmlns="http://www.w3.org/2000/svg">
<path d="M12.056 39L0.484 7.892H5.588L15.312 35.04L24.992 7.892H30.008L18.524 39H12.056ZM34.2028 39V7.892H55.6308V12.16H38.8668V21.488H53.6948V25.712H38.8668V34.732H55.6308V39H34.2028ZM61.2301 39V7.892H73.1981C74.8701 7.892 76.3955 8.068 77.7741 8.42C79.1528 8.74267 80.3555 9.28533 81.3821 10.048C82.4088 10.7813 83.2008 11.7787 83.7581 13.04C84.3155 14.3013 84.5941 15.856 84.5941 17.704C84.5941 19.376 84.3008 20.8133 83.7141 22.016C83.1275 23.2187 82.3208 24.216 81.2941 25.008C80.2675 25.8 79.1088 26.4013 77.8181 26.812L84.4621 39H79.3141L73.1541 27.56H65.8941V39H61.2301ZM65.8941 23.38H72.2301C73.2861 23.38 74.2688 23.3067 75.1781 23.16C76.1168 22.984 76.9381 22.6907 77.6421 22.28C78.3461 21.84 78.8888 21.2533 79.2701 20.52C79.6808 19.7573 79.8861 18.7893 79.8861 17.616C79.9155 16.2667 79.6515 15.196 79.0941 14.404C78.5661 13.5827 77.7741 13.0107 76.7181 12.688C75.6621 12.336 74.3861 12.16 72.8901 12.16H65.8941V23.38ZM97.3528 39V12.16H87.4968V7.892H111.829V12.16H102.017V39H97.3528ZM116.058 39V7.892H137.486V12.16H120.722V21.488H135.55V25.712H120.722V34.732H137.486V39H116.058ZM139.918 39L150.126 23.468L140.226 7.892H145.902L153.074 19.772L160.246 7.892H165.79L155.934 23.336L166.142 39H160.51L152.986 27.076L145.33 39H139.918Z" fill="url(#paint0_linear_509_6497)"/>
<path d="M1.66 71V56.86H11.4V58.8H3.78V63.04H10.52V64.96H3.78V69.06H11.4V71H1.66ZM13.9452 71V56.86H19.0452C20.0985 56.86 21.0052 57.0267 21.7652 57.36C22.5385 57.6933 23.1318 58.2133 23.5452 58.92C23.9585 59.6133 24.1652 60.5133 24.1652 61.62C24.1652 62.6867 23.9252 63.58 23.4452 64.3C22.9785 65.02 22.3385 65.5667 21.5252 65.94C20.7118 66.3 19.7852 66.48 18.7452 66.48H16.0652V71H13.9452ZM16.0652 64.56H18.6652C19.6785 64.56 20.4918 64.3267 21.1052 63.86C21.7185 63.38 22.0252 62.6133 22.0252 61.56C22.0252 60.64 21.7718 59.9533 21.2652 59.5C20.7585 59.0333 19.9918 58.8 18.9652 58.8H16.0652V64.56ZM32.7144 71.16C31.261 71.16 30.041 70.8533 29.0544 70.24C28.081 69.6267 27.3477 68.78 26.8544 67.7C26.361 66.62 26.1144 65.3733 26.1144 63.96C26.1144 62.5467 26.361 61.2933 26.8544 60.2C27.361 59.1067 28.101 58.2533 29.0744 57.64C30.061 57.0133 31.281 56.7 32.7344 56.7C33.7877 56.7 34.7077 56.8733 35.4944 57.22C36.281 57.5533 36.9144 58.0333 37.3944 58.66C37.8877 59.2733 38.2144 60.0067 38.3744 60.86H36.2944C36.0944 60.18 35.6877 59.64 35.0744 59.24C34.461 58.84 33.6744 58.64 32.7144 58.64C31.6477 58.64 30.7877 58.8867 30.1344 59.38C29.4944 59.8733 29.0277 60.52 28.7344 61.32C28.441 62.1067 28.2944 62.96 28.2944 63.88C28.2944 64.8267 28.4477 65.7067 28.7544 66.52C29.061 67.3333 29.5477 67.9867 30.2144 68.48C30.881 68.9733 31.7344 69.22 32.7744 69.22C33.4144 69.22 33.981 69.1333 34.4744 68.96C34.9677 68.7733 35.381 68.5133 35.7144 68.18C36.0477 67.8333 36.2744 67.4333 36.3944 66.98H38.6144C38.441 67.8467 38.0877 68.5933 37.5544 69.22C37.021 69.8467 36.3477 70.3267 35.5344 70.66C34.721 70.9933 33.781 71.16 32.7144 71.16ZM52.3633 71.16C50.8966 71.16 49.6699 70.8533 48.6833 70.24C47.7099 69.6267 46.9766 68.78 46.4833 67.7C45.9899 66.6067 45.7433 65.36 45.7433 63.96C45.7433 62.9067 45.8766 61.94 46.1433 61.06C46.4233 60.1667 46.8366 59.3933 47.3833 58.74C47.9299 58.0867 48.6099 57.5867 49.4233 57.24C50.2499 56.88 51.2033 56.7 52.2833 56.7C53.3366 56.7 54.2633 56.8667 55.0633 57.2C55.8633 57.52 56.5233 57.9867 57.0433 58.6C57.5766 59.2133 57.9366 59.9533 58.1233 60.82H55.8833C55.7633 60.3533 55.5366 59.96 55.2033 59.64C54.8833 59.32 54.4766 59.0733 53.9833 58.9C53.5033 58.7267 52.9566 58.64 52.3433 58.64C51.5433 58.64 50.8633 58.78 50.3033 59.06C49.7433 59.34 49.2833 59.7267 48.9233 60.22C48.5766 60.7 48.3233 61.26 48.1633 61.9C48.0033 62.54 47.9233 63.22 47.9233 63.94C47.9233 64.9 48.0766 65.78 48.3833 66.58C48.6899 67.38 49.1699 68.02 49.8233 68.5C50.4766 68.98 51.3299 69.22 52.3833 69.22C53.1966 69.22 53.8966 69.08 54.4833 68.8C55.0699 68.5067 55.5299 68.0933 55.8633 67.56C56.1966 67.0133 56.3699 66.3533 56.3833 65.58H52.0033V63.72H58.4633V64.76C58.4633 66.0533 58.2233 67.18 57.7433 68.14C57.2633 69.1 56.5699 69.8467 55.6633 70.38C54.7566 70.9 53.6566 71.16 52.3633 71.16ZM60.9959 71V56.86H66.4359C67.1959 56.86 67.8893 56.94 68.5159 57.1C69.1426 57.2467 69.6893 57.4933 70.1559 57.84C70.6226 58.1733 70.9826 58.6267 71.2359 59.2C71.4893 59.7733 71.6159 60.48 71.6159 61.32C71.6159 62.08 71.4826 62.7333 71.2159 63.28C70.9493 63.8267 70.5826 64.28 70.1159 64.64C69.6493 65 69.1226 65.2733 68.5359 65.46L71.5559 71H69.2159L66.4159 65.8H63.1159V71H60.9959ZM63.1159 63.9H65.9959C66.4759 63.9 66.9226 63.8667 67.3359 63.8C67.7626 63.72 68.1359 63.5867 68.4559 63.4C68.7759 63.2 69.0226 62.9333 69.1959 62.6C69.3826 62.2533 69.4759 61.8133 69.4759 61.28C69.4893 60.6667 69.3693 60.18 69.1159 59.82C68.8759 59.4467 68.5159 59.1867 68.0359 59.04C67.5559 58.88 66.9759 58.8 66.2959 58.8H63.1159V63.9ZM80.3353 71.16C78.882 71.16 77.6486 70.8533 76.6353 70.24C75.6353 69.6133 74.8753 68.7533 74.3553 67.66C73.8353 66.5667 73.5753 65.3267 73.5753 63.94C73.5753 62.54 73.8353 61.2933 74.3553 60.2C74.8753 59.1067 75.642 58.2533 76.6553 57.64C77.6686 57.0133 78.902 56.7 80.3553 56.7C81.822 56.7 83.0553 57.0067 84.0553 57.62C85.0553 58.2333 85.8153 59.0867 86.3353 60.18C86.8553 61.2733 87.1153 62.52 87.1153 63.92C87.1153 65.3067 86.8553 66.5467 86.3353 67.64C85.8153 68.7333 85.0486 69.5933 84.0353 70.22C83.0353 70.8467 81.802 71.16 80.3353 71.16ZM80.3553 69.22C81.422 69.22 82.2953 68.9733 82.9753 68.48C83.6553 67.9867 84.1553 67.34 84.4753 66.54C84.7953 65.74 84.9553 64.8733 84.9553 63.94C84.9553 63.2333 84.862 62.56 84.6753 61.92C84.502 61.28 84.2286 60.7133 83.8553 60.22C83.482 59.7267 83.002 59.34 82.4153 59.06C81.8286 58.78 81.142 58.64 80.3553 58.64C79.302 58.64 78.4286 58.8867 77.7353 59.38C77.0553 59.8733 76.5486 60.52 76.2153 61.32C75.882 62.12 75.7153 62.9933 75.7153 63.94C75.7153 64.8733 75.8753 65.74 76.1953 66.54C76.5286 67.34 77.0353 67.9867 77.7153 68.48C78.4086 68.9733 79.2886 69.22 80.3553 69.22ZM95.2883 71.16C93.9549 71.16 92.8616 70.8933 92.0083 70.36C91.1683 69.8133 90.5483 69.0667 90.1483 68.12C89.7483 67.1733 89.5483 66.0733 89.5483 64.82V56.86H91.6683V64.84C91.6683 65.6267 91.7816 66.3533 92.0083 67.02C92.2349 67.6867 92.6149 68.22 93.1483 68.62C93.6816 69.02 94.4016 69.22 95.3083 69.22C96.2283 69.22 96.9483 69.02 97.4683 68.62C97.9883 68.22 98.3549 67.6867 98.5683 67.02C98.7816 66.3533 98.8883 65.6267 98.8883 64.84V56.86H101.028V64.82C101.028 66.06 100.828 67.16 100.428 68.12C100.028 69.0667 99.4083 69.8133 98.5683 70.36C97.7283 70.8933 96.6349 71.16 95.2883 71.16ZM104.258 71V56.86H109.358C110.411 56.86 111.318 57.0267 112.078 57.36C112.851 57.6933 113.444 58.2133 113.858 58.92C114.271 59.6133 114.478 60.5133 114.478 61.62C114.478 62.6867 114.238 63.58 113.758 64.3C113.291 65.02 112.651 65.5667 111.838 65.94C111.024 66.3 110.098 66.48 109.058 66.48H106.378V71H104.258ZM106.378 64.56H108.978C109.991 64.56 110.804 64.3267 111.418 63.86C112.031 63.38 112.338 62.6133 112.338 61.56C112.338 60.64 112.084 59.9533 111.578 59.5C111.071 59.0333 110.304 58.8 109.278 58.8H106.378V64.56Z" fill="url(#paint1_linear_509_6497)"/>
<defs>
<linearGradient id="paint0_linear_509_6497" x1="83.5" y1="0" x2="83.5" y2="48" gradientUnits="userSpaceOnUse">
<stop stop-color="#F0B35C"/>
<stop offset="1" stop-color="#F4E463"/>
</linearGradient>
<linearGradient id="paint1_linear_509_6497" x1="58" y1="52" x2="58" y2="76" gradientUnits="userSpaceOnUse">
<stop stop-color="#F0B35C"/>
<stop offset="1" stop-color="#F4E463"/>
</linearGradient>
</defs>
</svg>
