<svg width="1400" height="1400" viewBox="0 0 1400 1400" fill="none" xmlns="http://www.w3.org/2000/svg">
<rect width="1400" height="1400" fill="#3598DB"/>
<g clip-path="url(#clip0_21_2)">
<mask id="mask0_21_2" style="mask-type:alpha" maskUnits="userSpaceOnUse" x="274" y="276" width="818" height="850">
<line x1="287.963" y1="663" x2="1087.96" y2="657" stroke="#C36161" stroke-width="10"/>
<line x1="366.109" y1="443.084" x2="1041.11" y2="979.084" stroke="#C36161" stroke-width="10"/>
<line x1="427.329" y1="979.605" x2="989.607" y2="371.605" stroke="#C36161" stroke-width="10"/>
<line x1="638.954" y1="286.32" x2="752.954" y2="1117.32" stroke="#C36161" stroke-width="10"/>
<line x1="638.785" y1="279.45" x2="424.785" y2="985.45" stroke="#C36161" stroke-width="10"/>
<line x1="640.681" y1="283.384" x2="287.681" y2="667.384" stroke="#C36161" stroke-width="10"/>
<line x1="994.937" y1="372.609" x2="285.937" y2="670.609" stroke="#C36161" stroke-width="10"/>
<line x1="1085.22" y1="656.482" x2="422.217" y2="984.482" stroke="#C36161" stroke-width="10"/>
<line x1="289.932" y1="663.388" x2="1041.93" y2="978.388" stroke="#C36161" stroke-width="10"/>
<line x1="360.439" y1="442.211" x2="1089.44" y2="661.211" stroke="#C36161" stroke-width="10"/>
<line x1="1086.04" y1="654.953" x2="745.035" y2="1120.95" stroke="#C36161" stroke-width="10"/>
<line x1="1086.8" y1="659.841" x2="630.799" y2="279.841" stroke="#C36161" stroke-width="10"/>
<line x1="750.515" y1="1121.59" x2="283.515" y2="667.585" stroke="#C36161" stroke-width="10"/>
<path d="M989 368L748 1120" stroke="#C36161" stroke-width="10"/>
<line x1="634.32" y1="284.482" x2="1038.32" y2="977.482" stroke="#C36161" stroke-width="10"/>
<line x1="363.337" y1="444.512" x2="749.337" y2="1117.51" stroke="#C36161" stroke-width="10"/>
<path d="M358.993 438.737L420.5 987" stroke="#C36161" stroke-width="10"/>
<line x1="990.984" y1="377.603" x2="1038.98" y2="979.603" stroke="#C36161" stroke-width="10"/>
<line x1="993.57" y1="372.967" x2="357.57" y2="445.967" stroke="#C36161" stroke-width="10"/>
<path d="M358.608 441.895L634.76 281.342L989.637 369.691L1086.88 657.962L1039.94 978.654L746.826 1120.53L419.763 987.135L279.371 667.794L358.608 441.895Z" stroke="#B4C361" stroke-width="10"/>
</mask>
<g mask="url(#mask0_21_2)">
<rect x="253" y="252" width="865" height="900" fill="url(#paint0_radial_21_2)"/>
</g>
</g>
<circle cx="356.64" cy="439.64" r="23.5" transform="rotate(-27.1801 356.64 439.64)" fill="url(#paint1_linear_21_2)"/>
<circle cx="634.703" cy="277.703" r="23.5" transform="rotate(34.7432 634.703 277.703)" fill="url(#paint2_linear_21_2)"/>
<circle cx="993.5" cy="367.5" r="23.5" fill="url(#paint3_linear_21_2)"/>
<circle cx="1089.88" cy="657.877" r="23.5" transform="rotate(-36.5957 1089.88 657.877)" fill="url(#paint4_linear_21_2)"/>
<circle cx="275.05" cy="668.05" r="23.5" transform="rotate(-29.6594 275.05 668.05)" fill="url(#paint5_linear_21_2)"/>
<circle cx="418.067" cy="989.067" r="23.5" transform="rotate(-39.2469 418.067 989.067)" fill="url(#paint6_linear_21_2)"/>
<circle cx="747.235" cy="1123.24" r="23.5" transform="rotate(64.9713 747.235 1123.24)" fill="url(#paint7_linear_21_2)"/>
<circle cx="1041.59" cy="980.592" r="23.5" transform="rotate(21.9978 1041.59 980.592)" fill="url(#paint8_linear_21_2)"/>
<path d="M132 715H1234.46V905H132V715Z" fill="#3598DB"/>
<path d="M288.852 772.52L259.482 847.43L249.472 845.23L227.582 786.16L220.432 772.52H238.032L254.092 818.61L255.742 827.3L258.052 818.61L275.102 772.52H288.852ZM299.529 846V783.85L297.989 772.52H340.119V783.41H313.829V802.88H337.039L334.289 813.77H313.829V835.11H341.549L338.799 846H299.529ZM411.704 846H393.774L375.514 820.04H369.904V836.54L371.114 846H355.604V783.85L354.064 772.52H376.834C390.034 772.52 402.794 779.78 402.794 795.4C402.794 803.54 397.184 812.67 388.934 816.85L411.704 846ZM369.904 809.59H374.854C381.784 809.59 387.944 803.21 387.944 795.4C387.944 787.04 381.784 782.64 374.854 782.64H369.904V809.59ZM409.494 783.63V772.52H470.654V783.63H446.894V836.54L448.104 846H432.594V783.63H409.494ZM481.287 846V783.85L479.747 772.52H521.877V783.41H495.587V802.88H518.797L516.047 813.77H495.587V835.11H523.307L520.557 846H481.287ZM526.691 846L549.131 809.26L534.061 782.09L527.021 772.52H544.511L555.731 793.2L557.381 797.05L558.811 793.2L570.691 772.52H585.211L563.871 807.5L585.651 846H569.591L557.601 823.67L555.841 819.82L554.301 823.67L541.871 846H526.691ZM623.836 846V783.85L622.296 772.52H664.426V783.41H638.136V802.88H661.346L658.596 813.77H638.136V835.11H665.856L663.106 846H623.836ZM678.37 772.52H701.14C714.34 772.52 727.1 779.78 727.1 795.4C727.1 808.49 714.56 820.04 697.4 820.04H694.21V836.54L695.42 846H679.91V783.85L678.37 772.52ZM694.21 809.04H699.16C706.09 809.04 712.25 803.21 712.25 795.4C712.25 787.04 706.09 783.19 699.16 783.19H694.21V809.04ZM795.813 780.33L789.983 790.89C783.823 784.62 777.223 782.09 770.733 782.09C758.303 782.09 748.953 794.96 748.953 809.7C748.953 826.86 759.953 836.21 771.833 836.21C779.313 836.21 787.673 832.69 794.053 825.87L796.693 837.2C789.763 843.58 779.093 847.43 769.743 847.43C751.593 847.43 734.103 835.11 734.103 810.8C734.103 787.59 750.053 771.2 770.623 771.2C780.523 771.2 788.773 774.06 795.813 780.33ZM891.419 780.33L885.589 790.89C879.429 784.62 872.829 782.09 866.339 782.09C853.909 782.09 844.559 794.96 844.559 809.7C844.559 826.86 855.889 836.65 867.329 836.65C873.159 836.65 878.659 835.22 878.659 835.22V819.71L876.679 810.25H892.519L892.629 842.59C892.629 842.59 879.759 847.43 865.349 847.43C847.199 847.43 829.709 835.11 829.709 810.8C829.709 787.59 845.659 771.2 866.229 771.2C876.129 771.2 884.379 774.06 891.419 780.33ZM964.926 846H946.996L928.736 820.04H923.126V836.54L924.336 846H908.826V783.85L907.286 772.52H930.056C943.256 772.52 956.016 779.78 956.016 795.4C956.016 803.54 950.406 812.67 942.156 816.85L964.926 846ZM923.126 809.59H928.076C935.006 809.59 941.166 803.21 941.166 795.4C941.166 787.04 935.006 782.64 928.076 782.64H923.126V809.59ZM1003.37 771.42C1026.03 771.42 1037.36 786.93 1037.36 808.71C1037.36 830.71 1021.96 847.43 1001.94 847.43C980.378 847.43 968.168 831.04 968.168 810.03C968.168 788.14 983.348 771.42 1003.37 771.42ZM983.348 809.37C983.348 825.1 991.158 836.76 1002.82 836.76C1014.48 836.76 1022.18 825.1 1022.18 809.37C1022.18 793.64 1014.48 781.98 1002.82 781.98C991.158 781.98 983.348 793.64 983.348 809.37ZM1098.9 817.73V783.85L1097.36 772.52H1111.55V816.52C1111.55 835 1099.23 847.43 1079.87 847.43C1051.71 847.43 1051.05 821.25 1051.05 819.38V783.85L1049.51 772.52H1065.35V818.5C1065.35 829.5 1072.39 836.65 1081.85 836.65C1091.42 836.65 1098.9 828.73 1098.9 817.73ZM1128.58 772.52H1151.35C1164.55 772.52 1177.31 779.78 1177.31 795.4C1177.31 808.49 1164.77 820.04 1147.61 820.04H1144.42V836.54L1145.63 846H1130.12V783.85L1128.58 772.52ZM1144.42 809.04H1149.37C1156.3 809.04 1162.46 803.21 1162.46 795.4C1162.46 787.04 1156.3 783.19 1149.37 783.19H1144.42V809.04Z" fill="white"/>
<defs>
<radialGradient id="paint0_radial_21_2" cx="0" cy="0" r="1" gradientUnits="userSpaceOnUse" gradientTransform="translate(685.5 702) rotate(127.645) scale(527.608 536.409)">
<stop offset="0.31" stop-color="#F9EA9E"/>
<stop offset="0.633297" stop-color="#D5C076"/>
<stop offset="1" stop-color="#B99855"/>
</radialGradient>
<linearGradient id="paint1_linear_21_2" x1="356.64" y1="416.14" x2="356.64" y2="463.14" gradientUnits="userSpaceOnUse">
<stop offset="0.44" stop-color="#F0E494"/>
<stop offset="0.815" stop-color="#BD9E5A"/>
</linearGradient>
<linearGradient id="paint2_linear_21_2" x1="634.703" y1="254.203" x2="634.703" y2="301.203" gradientUnits="userSpaceOnUse">
<stop offset="0.44" stop-color="#F0E494"/>
<stop offset="0.815" stop-color="#BD9E5A"/>
</linearGradient>
<linearGradient id="paint3_linear_21_2" x1="993.5" y1="344" x2="993.5" y2="391" gradientUnits="userSpaceOnUse">
<stop offset="0.44" stop-color="#F0E494"/>
<stop offset="0.815" stop-color="#BD9E5A"/>
</linearGradient>
<linearGradient id="paint4_linear_21_2" x1="1089.88" y1="634.377" x2="1089.88" y2="681.377" gradientUnits="userSpaceOnUse">
<stop offset="0.44" stop-color="#F0E494"/>
<stop offset="0.815" stop-color="#BD9E5A"/>
</linearGradient>
<linearGradient id="paint5_linear_21_2" x1="275.05" y1="644.55" x2="275.05" y2="691.55" gradientUnits="userSpaceOnUse">
<stop offset="0.44" stop-color="#F0E494"/>
<stop offset="0.815" stop-color="#BD9E5A"/>
</linearGradient>
<linearGradient id="paint6_linear_21_2" x1="418.067" y1="965.567" x2="418.067" y2="1012.57" gradientUnits="userSpaceOnUse">
<stop offset="0.44" stop-color="#F0E494"/>
<stop offset="0.815" stop-color="#BD9E5A"/>
</linearGradient>
<linearGradient id="paint7_linear_21_2" x1="747.235" y1="1099.74" x2="747.235" y2="1146.74" gradientUnits="userSpaceOnUse">
<stop offset="0.44" stop-color="#F0E494"/>
<stop offset="0.815" stop-color="#BD9E5A"/>
</linearGradient>
<linearGradient id="paint8_linear_21_2" x1="1041.59" y1="957.092" x2="1041.59" y2="1004.09" gradientUnits="userSpaceOnUse">
<stop offset="0.44" stop-color="#F0E494"/>
<stop offset="0.815" stop-color="#BD9E5A"/>
</linearGradient>
<clipPath id="clip0_21_2">
<rect width="818" height="850" fill="white" transform="translate(274 276)"/>
</clipPath>
</defs>
</svg>
